<svg xmlns="http://www.w3.org/2000/svg" viewBox="0 0 24 24" fill="#C4C4C4" width="48px" height="48px">

 <g>
  <title>background</title>
  <rect fill="none" id="canvas_background" height="602" width="802" y="-1" x="-1"/>
 </g>
 <g>
  <title>Layer 1</title>
  <path id="svg_1" fill="none" d="m0,-0.09615l24,0l0,24l-24,0l0,-24z"/>
  <path fill="#C4C4C4" id="svg_2" d="m3,5l0,14c0,1.1 0.89,2 2,2l14,0c1.1,0 2,-0.9 2,-2l0,-14c0,-1.1 -0.9,-2 -2,-2l-14,0c-1.11,0 -2,0.9 -2,2z"/>
  <g stroke="null" id="svg_8">
   <path stroke="null" id="svg_6" fill="none" d="m5.8618,5.39496l12.2764,0l0,13.15296l-12.2764,0l0,-13.15296z"/>
   <path stroke="null" fill="#ffffff" id="svg_7" d="m16.08065,9.73894l-0.65079,0l0,-1.29203c0,-1.78301 -1.45777,-3.23008 -3.25394,-3.23008s-3.25394,1.44707 -3.25394,3.23008l0,1.29203l-0.65079,0c-0.71586,0 -1.30156,0.58142 -1.30156,1.29203l0,6.46017c0,0.71063 0.5857,1.29203 1.30156,1.29203l7.80946,0c0.71587,0 1.30158,-0.58141 1.30158,-1.29203l0,-6.46017c0,-0.71061 -0.5857,-1.29203 -1.30158,-1.29203zm-3.90473,5.81416c-0.71586,0 -1.30158,-0.58142 -1.30158,-1.29203s0.58572,-1.29203 1.30158,-1.29203s1.30158,0.58141 1.30158,1.29203s-0.5857,1.29203 -1.30158,1.29203zm-1.95237,-5.81416l0,-1.29203c0,-1.07238 0.87206,-1.93804 1.95237,-1.93804s1.95237,0.86566 1.95237,1.93804l0,1.29203l-3.90473,0z"/>
  </g>
 </g>
</svg>