<?xml version="1.0" encoding="UTF-8" standalone="no"?>
<svg
   xmlns:dc="http://purl.org/dc/elements/1.1/"
   xmlns:cc="http://creativecommons.org/ns#"
   xmlns:rdf="http://www.w3.org/1999/02/22-rdf-syntax-ns#"
   xmlns:svg="http://www.w3.org/2000/svg"
   xmlns="http://www.w3.org/2000/svg"
   viewBox="0 0 1216.6267 743.05334"
   height="743.05334"
   width="1216.6267"
   xml:space="preserve"
   id="svg2"
   version="1.1"><metadata
     id="metadata8"><rdf:RDF><cc:Work
         rdf:about=""><dc:format>image/svg+xml</dc:format><dc:type
           rdf:resource="http://purl.org/dc/dcmitype/StillImage" /></cc:Work></rdf:RDF></metadata><defs
     id="defs6" /><g
     transform="matrix(1.3333333,0,0,-1.3333333,0,743.05333)"
     id="g10"><g
       transform="scale(0.1)"
       id="g12"><path
         id="path14"
         style="fill:#d8c8e8;fill-opacity:1;fill-rule:nonzero;stroke:none"
         d="M 2195.68,106.539 C 2181.26,76.3711 2168.59,31.6992 2158.09,0.378906 2443.02,0.378906 2753.03,0 3007.76,0 3299.01,0.03125 3590.25,0.0507813 3881.49,0.0703125 4463.97,0.128906 5046.46,0.191406 5628.94,0.238281 6791.92,0.351563 7954.9,0.449219 9117.88,0.5625 c 1.99,0 3.98,0.007813 5.97,0.007813 C 9124.13,1846.69 9124.41,3692.8 9124.69,5538.91 8431.35,5679.58 7713.04,5365.14 7188.03,4933.38 c -239.61,-197.04 -457.15,-422.32 -738.94,-567.1 -281.78,-144.79 -656.56,-192.36 -920.47,-22.41 -268.72,173.06 -341.58,509.25 -576.04,718.91 -235.38,210.48 -589.35,267.4 -905.75,206.8 -319.31,-61.16 -646.33,-306.47 -746.07,-592.79 -24.19,-69.45 -33.38,-142.82 -30.67,-215.58 9.67,-259.32 163.67,-485 311.62,-698.53 112.68,-162.62 345.14,-273 380.47,-475.34 21.22,-121.57 -43.71,-244.9 -138.26,-333.67 -94.56,-88.78 -216.22,-149.34 -335.27,-209.58 -342.06,-173.11 -678.83,-354.72 -1009.77,-544.58 -228.37,-131.02 -566.43,-367.06 -440.25,-653.04 77.18,-174.92 303.29,-242.84 461.95,-341.32 85.81,-53.25 164.1,-126.2 185.59,-218.08 C 2711,880.891 2655.78,773.59 2594.58,680.141 2470.93,491.301 2293.37,311.039 2195.68,106.539" /><path
         id="path16"
         style="fill:#f6e6f4;fill-opacity:1;fill-rule:nonzero;stroke:none"
         d="m 8574.73,2848.67 c -305.01,366.3 -887.83,419.38 -1253.97,729.78 -396.53,336.16 -499.64,811.11 -840.29,1199.39 -142.07,161.93 -303.96,391.42 -497.2,497.37 -174.07,95.45 -361.88,178.73 -570.79,194.88 -261.79,20.25 -546.17,-71.98 -763.05,-247.47 -213.4,-172.68 -367.04,-422.53 -614.46,-538.86 -310.71,-146.09 -644.52,-41.48 -947.99,-20.23 -354.81,24.85 -722.89,-171.85 -843.54,-503.29 -54.09,-148.59 -54.28,-310.99 -29.42,-466.55 25.32,-158.44 78.94,-318.96 183.79,-446.23 110.74,-134.41 256.94,-236.86 354.15,-383.14 115.28,-173.48 106,-407.64 68.1,-626.6 -37.91,-218.99 -101.21,-441.09 -82.27,-655.23 27.84,-314.75 247.49,-584.26 553.99,-679.771 393.5,-122.598 853.6,31.761 1271.87,191.021 374.48,142.58 807.07,309.56 1197.97,282.83 412.3,-28.19 752.19,-289.45 1144,-376.28 501.45,-111.099 1110.11,47.72 1494.83,445.99 384.71,398.27 484.44,1029.87 174.28,1402.39" /><path
         id="path18"
         style="fill:#e0a7d8;fill-opacity:1;fill-rule:nonzero;stroke:none"
         d="m 6903.7,4481.83 -4.81,7.25 47.17,32.22 5,-7.14 c -15.36,-11.05 -31.29,-21.93 -47.36,-32.33" /><path
         id="path20"
         style="fill:#e0a7d8;fill-opacity:1;fill-rule:nonzero;stroke:none"
         d="m 6397.7,4474.16 -20.05,-122.23 162.82,1.12 c 111.95,11.36 227.77,54.06 344.12,126.93 l -126.07,-1.91 188.76,44.11 c 81.76,59.01 142.77,118.43 180.52,159.16 -50.37,27.75 -170.79,12.91 -172.04,12.75 l -1.41,8.6 c 85.04,17.46 133,21.25 168.03,24.02 18.8,1.48 33.78,2.67 48.63,5.53 47.26,61.19 70.5,135.68 92.97,207.73 5.4,17.33 10.56,33.87 15.97,49.94 -142.04,-62.82 -180.92,-70.14 -182.53,-70.43 l -2.2,8.39 c 65.79,22.99 113.69,54.27 155.95,81.85 15.54,10.16 30.24,19.75 44.47,28 57.36,187.94 28.15,281.8 21.16,299.89 -49.2,-13.63 -136.7,-47.73 -201.03,-72.81 -22.45,-8.76 -42.12,-16.42 -56.41,-21.76 -46.31,-93.99 -86.46,-218.7 -86.86,-219.95 l -12.22,-38.09 3.73,39.82 c 5.56,59.5 30.02,140.44 50.79,200.95 -56.46,-22.53 -60.28,-25.01 -90.86,-44.89 -6.8,-4.43 -14.92,-9.7 -25.19,-16.22 -50.67,-95 -95.81,-273.92 -96.26,-275.71 l -9.66,-38.58 1.08,39.75 c 1.92,70.43 28.39,172.66 46.36,234.59 -89.14,-65.64 -162.1,-142.46 -228.84,-240.81 -17.39,-90.05 -25.52,-184.33 -25.61,-185.28 l -3.32,-38.98 -5.33,38.75 c -4.48,32.5 -5.16,75.79 -2.07,128.88 -60.91,-100.35 -113.24,-213.88 -168.47,-333.75 z m -30.33,-131 22.18,134.1 9.17,19.9 c 58.11,126.1 112.99,245.21 178.16,349.62 l 9.27,14.86 -1.23,-17.47 c -2.6,-36.62 -3.51,-68.87 -2.75,-96.48 4.2,36.29 11.08,88.22 20.88,138.74 l 0.67,1.61 c 70.02,103.35 146.85,183.19 241.79,251.24 l 10.33,7.41 -3.61,-12.19 c -14.1,-47.43 -35.98,-127.57 -45.29,-195.78 17.21,60.79 49.62,165.81 84.68,231.06 l 0.53,1 0.97,0.61 c 10.7,6.79 19.08,12.24 26.08,16.79 32.76,21.3 35.44,23.04 101.22,49.2 l 8.87,3.53 -3.15,-9.01 c -16.01,-45.94 -35.04,-105.91 -45.89,-159.07 16.22,45.8 42.96,116.85 72.07,175.62 l 0.77,1.55 1.63,0.61 c 14.36,5.33 34.63,13.23 57.89,22.31 66.14,25.77 156.71,61.08 205.59,74.11 l 3.44,0.91 1.58,-3.18 c 1.92,-3.84 46.13,-96.56 -19.74,-311.23 l -0.51,-1.65 -1.49,-0.85 c -14.49,-8.32 -29.58,-18.17 -45.54,-28.6 -20.92,-13.65 -43.2,-28.2 -68.34,-42.23 25.7,10.32 57.93,23.9 97.94,41.71 l 9.18,4.09 -3.31,-9.5 c -6.57,-18.91 -12.66,-38.45 -19.12,-59.12 -22.85,-73.3 -46.5,-149.09 -95.4,-211.78 l -0.99,-1.27 -1.58,-0.32 c -15.89,-3.19 -31.5,-4.42 -51.25,-5.99 -23.71,-1.87 -53.37,-4.22 -96.61,-11.01 0.22,0 0.42,0 0.63,0 39.14,0 84.5,-4.22 109.94,-21.06 l 4.26,-2.82 -3.46,-3.76 c -37.8,-41.21 -100.78,-103.24 -186.16,-164.75 l -1.55,-0.72 -110.79,-25.9 75.73,1.16 -12.77,-8.24 c -121.88,-78.67 -243.45,-124.62 -361.34,-136.55 l -173.58,-1.21" /><path
         id="path22"
         style="fill:#e0a7d8;fill-opacity:1;fill-rule:nonzero;stroke:none"
         d="m 6374.6,4343.72 -4.18,7.64 c 399.36,219.24 826.42,849.44 830.68,855.78 l 7.24,-4.87 c -4.29,-6.36 -432.5,-638.28 -833.74,-858.55" /><path
         id="path24"
         style="fill:#bd8ccc;fill-opacity:1;fill-rule:nonzero;stroke:none"
         d="m 3878.84,3769.88 c -0.22,0.45 -0.36,0.96 -0.39,1.48 -0.12,2.11 1.5,3.91 3.6,4.03 6.3,0.34 12.58,0.84 18.85,1.49 2.1,0.22 3.98,-1.32 4.19,-3.41 0.22,-2.1 -1.31,-3.97 -3.41,-4.19 -6.39,-0.66 -12.78,-1.16 -19.21,-1.52 -1.57,-0.08 -2.98,0.8 -3.63,2.12" /><path
         id="path26"
         style="fill:#bd8ccc;fill-opacity:1;fill-rule:nonzero;stroke:none"
         d="m 4250.06,4387.62 c -0.81,1.64 -0.34,3.67 1.19,4.78 1.71,1.23 4.1,0.85 5.33,-0.86 7.27,-10.07 13.82,-20.67 19.49,-31.5 l 0.78,-1.51 c 0.01,-0.02 0.02,-0.04 0.03,-0.05 0.92,-1.87 0.17,-4.14 -1.69,-5.09 -1.88,-0.96 -4.17,-0.21 -5.14,1.66 l -0.74,1.43 c -5.5,10.53 -11.86,20.82 -18.92,30.59 -0.13,0.17 -0.24,0.36 -0.33,0.55 z m 45.53,-104.26 c -0.14,0.27 -0.24,0.57 -0.31,0.87 -2.72,12.43 -6.18,24.63 -10.31,36.25 -0.7,1.99 0.34,4.17 2.32,4.87 1.99,0.71 4.2,-0.29 4.87,-2.32 4.24,-11.92 7.8,-24.43 10.58,-37.16 0.45,-2.07 -0.86,-4.1 -2.91,-4.55 -1.75,-0.38 -3.48,0.5 -4.24,2.04 z M 4196.83,4442 c -0.62,1.26 -0.53,2.81 0.37,4 1.27,1.68 3.66,2.01 5.35,0.74 10.24,-7.72 20.03,-16.33 29.08,-25.59 1.46,-1.53 1.44,-3.93 -0.07,-5.4 -1.51,-1.47 -3.92,-1.44 -5.4,0.07 -8.78,8.98 -18.27,17.34 -28.21,24.83 -0.48,0.37 -0.87,0.84 -1.12,1.35 z m 106.56,-234.47 c -0.26,0.51 -0.4,1.09 -0.39,1.7 0.05,12.71 -0.56,25.4 -1.81,37.73 -0.21,2.1 1.31,3.97 3.41,4.18 2.1,0.22 3.97,-1.32 4.19,-3.4 1.27,-12.6 1.89,-25.57 1.84,-38.54 -0.01,-2.11 -1.72,-3.81 -3.83,-3.8 -1.5,0.01 -2.79,0.87 -3.41,2.13 z m -173.89,269.81 c -0.43,0.86 -0.53,1.88 -0.21,2.87 0.65,2 2.8,3.11 4.81,2.46 12.12,-3.92 24.14,-9 35.73,-15.12 1.86,-1 2.58,-3.29 1.59,-5.16 -0.98,-1.86 -3.29,-2.58 -5.16,-1.59 -11.19,5.9 -22.81,10.82 -34.51,14.6 -1.02,0.33 -1.81,1.05 -2.25,1.94 z m 166.19,-345.68 c -0.36,0.72 -0.5,1.56 -0.33,2.42 2.46,12.41 4.35,25 5.62,37.41 0.21,2.09 2.08,3.62 4.18,3.41 2.11,-0.22 3.62,-2.11 3.41,-4.19 -1.29,-12.64 -3.21,-25.46 -5.71,-38.11 -0.41,-2.07 -2.42,-3.41 -4.49,-3 -1.21,0.23 -2.17,1.03 -2.68,2.06 z m -21.63,-73.13 c -0.47,0.94 -0.54,2.06 -0.13,3.1 4.69,11.76 8.86,23.79 12.4,35.73 0.6,2.02 2.72,3.18 4.74,2.58 2.03,-0.59 3.18,-2.72 2.58,-4.74 -3.6,-12.17 -7.85,-24.42 -12.62,-36.4 -0.79,-1.95 -3,-2.91 -4.96,-2.12 -0.92,0.35 -1.61,1.04 -2.01,1.85 z m -219.87,428.24 c -0.23,0.45 -0.36,0.96 -0.39,1.48 -0.11,2.11 1.5,3.91 3.6,4.02 9.08,0.49 17.56,0.49 25.92,0.01 4.32,-0.25 8.6,-0.65 12.87,-1.18 2.09,-0.26 3.58,-2.17 3.32,-4.26 -0.27,-2.09 -2.17,-3.57 -4.26,-3.31 -4.1,0.5 -8.23,0.88 -12.37,1.12 -8.08,0.47 -16.27,0.47 -25.06,0 -1.58,-0.08 -2.98,0.8 -3.63,2.12 z m 185.51,-496.35 c -0.56,1.14 -0.55,2.54 0.17,3.7 6.65,10.76 12.87,21.87 18.5,33.02 0.95,1.88 3.25,2.64 5.13,1.69 1.89,-0.95 2.63,-3.25 1.68,-5.13 -5.72,-11.35 -12.05,-22.64 -18.81,-33.59 -1.11,-1.79 -3.46,-2.36 -5.26,-1.24 -0.63,0.39 -1.11,0.93 -1.41,1.55 z m -260.9,484.61 c -0.13,0.28 -0.24,0.58 -0.3,0.89 -0.45,2.06 0.86,4.1 2.93,4.53 11.94,2.57 24.77,5.24 37.64,7.39 2.08,0.34 4.05,-1.05 4.4,-3.14 0.34,-2.08 -1.06,-4.04 -3.14,-4.39 -12.72,-2.13 -25.44,-4.78 -37.3,-7.32 -1.75,-0.37 -3.47,0.51 -4.23,2.04 z m 215.59,-545.99 c -0.66,1.34 -0.5,3 0.55,4.2 8.3,9.51 16.28,19.44 23.72,29.52 1.25,1.69 3.64,2.06 5.34,0.81 1.71,-1.25 2.05,-3.65 0.8,-5.35 -7.56,-10.24 -15.67,-20.33 -24.11,-30 -1.38,-1.59 -3.8,-1.75 -5.39,-0.37 -0.38,0.35 -0.69,0.75 -0.91,1.19 z m -290.66,531.97 c -0.19,0.39 -0.31,0.81 -0.37,1.26 -0.24,2.09 1.27,3.99 3.37,4.22 11,1.26 22.88,3.19 37.38,6.06 2.08,0.42 4.08,-0.94 4.49,-3 0.41,-2.06 -0.93,-4.08 -3,-4.49 -14.71,-2.91 -26.79,-4.86 -38.01,-6.15 -1.64,-0.19 -3.16,0.7 -3.86,2.1 z m 236.07,-585.28 c -0.76,1.54 -0.4,3.47 0.98,4.62 9.66,8.04 19.13,16.57 28.13,25.36 1.5,1.48 3.92,1.45 5.4,-0.05 1.46,-1.54 1.44,-3.94 -0.07,-5.41 -9.14,-8.93 -18.75,-17.6 -28.57,-25.77 -1.62,-1.35 -4.03,-1.13 -5.38,0.49 -0.19,0.24 -0.36,0.49 -0.49,0.76 z m -311.88,588.99 c -0.39,0.79 -0.51,1.72 -0.27,2.64 0.53,2.05 2.61,3.27 4.65,2.74 2.43,-0.63 4.9,-1.2 7.39,-1.73 9.48,-1.98 19.13,-3.14 29.5,-3.54 2.1,-0.08 3.75,-1.86 3.67,-3.96 -0.08,-2.11 -1.85,-3.75 -3.96,-3.67 -10.66,0.41 -21.01,1.66 -30.78,3.7 -2.61,0.55 -5.18,1.15 -7.73,1.81 -1.12,0.29 -1.99,1.05 -2.47,2.01 z m -67.93,33.69 c -0.61,1.25 -0.52,2.8 0.38,3.99 1.26,1.69 3.65,2.02 5.34,0.76 10.44,-7.82 21.11,-14.51 31.73,-19.86 1.88,-0.97 2.64,-3.26 1.69,-5.13 -0.95,-1.88 -3.25,-2.64 -5.13,-1.69 -11.02,5.56 -22.08,12.48 -32.87,20.57 -0.5,0.37 -0.88,0.85 -1.14,1.36 z m 317.48,-666.69 c -0.87,1.78 -0.25,3.95 1.48,4.98 10.79,6.39 21.48,13.32 31.78,20.58 1.73,1.23 4.11,0.81 5.32,-0.91 1.21,-1.72 0.8,-4.1 -0.91,-5.32 -10.47,-7.39 -21.34,-14.43 -32.3,-20.93 -1.82,-1.07 -4.16,-0.47 -5.23,1.35 -0.05,0.07 -0.1,0.17 -0.14,0.25 z m -372.44,719.52 c -0.75,1.52 -0.42,3.42 0.93,4.58 1.59,1.37 4.01,1.2 5.39,-0.4 8.93,-10.37 17.39,-19.41 25.84,-27.65 1.51,-1.48 1.54,-3.89 0.07,-5.39 -1.47,-1.51 -3.89,-1.54 -5.41,-0.07 -8.6,8.39 -17.2,17.59 -26.29,28.12 -0.21,0.25 -0.39,0.53 -0.53,0.81 z m -47.16,60.1 c -0.81,1.62 -0.36,3.64 1.14,4.75 1.69,1.27 4.09,0.91 5.35,-0.78 7.53,-10.15 15.16,-20.36 22.99,-30.43 1.29,-1.68 0.98,-4.06 -0.68,-5.35 -1.66,-1.3 -4.06,-1 -5.36,0.67 -7.85,10.12 -15.52,20.37 -23.09,30.55 -0.13,0.2 -0.25,0.39 -0.35,0.59 z m -46.49,60.59 c -0.77,1.57 -0.39,3.5 1.02,4.65 1.63,1.33 4.03,1.09 5.36,-0.55 7.86,-9.64 15.83,-19.77 23.71,-30.1 1.32,-1.67 0.97,-4.06 -0.72,-5.35 -1.67,-1.28 -4.07,-0.95 -5.35,0.72 -7.83,10.27 -15.75,20.33 -23.55,29.91 -0.19,0.23 -0.35,0.47 -0.47,0.72 z m -50.45,57.32 c -0.73,1.46 -0.45,3.28 0.78,4.45 1.53,1.46 3.94,1.41 5.39,-0.12 8.59,-8.98 17.31,-18.49 25.91,-28.28 1.4,-1.56 1.25,-3.99 -0.34,-5.38 -1.59,-1.39 -4,-1.24 -5.39,0.35 -8.54,9.7 -17.18,19.14 -25.69,28.04 -0.27,0.28 -0.5,0.61 -0.66,0.94 z m 447.94,-930.91 c -0.05,0.1 -0.09,0.2 -0.14,0.31 -0.76,1.97 0.22,4.18 2.18,4.93 11.66,4.53 23.34,9.62 34.71,15.16 1.89,0.92 4.16,0.14 5.09,-1.75 0.01,0 0.01,-0.01 0.01,-0.01 0.92,-1.9 0.13,-4.19 -1.77,-5.11 -11.55,-5.63 -23.42,-10.81 -35.27,-15.4 -1.87,-0.72 -3.94,0.11 -4.81,1.87 z m -503.33,983.48 c -0.66,1.32 -0.51,2.97 0.52,4.17 1.37,1.6 3.77,1.8 5.38,0.42 9.54,-8.16 19.13,-16.81 28.51,-25.72 1.51,-1.47 1.58,-3.87 0.13,-5.4 -1.46,-1.53 -3.87,-1.59 -5.4,-0.13 -9.27,8.82 -18.76,17.38 -28.21,25.44 -0.4,0.35 -0.71,0.77 -0.93,1.22 z m -60.92,45.99 c -0.58,1.18 -0.53,2.62 0.23,3.8 1.17,1.76 3.53,2.25 5.3,1.09 10.51,-6.93 21.07,-14.4 31.37,-22.2 1.68,-1.28 2.02,-3.67 0.74,-5.35 -1.27,-1.68 -3.67,-2.01 -5.35,-0.74 -10.16,7.7 -20.59,15.07 -30.97,21.91 -0.58,0.39 -1.03,0.91 -1.32,1.49 z m 491,-1050.77 c -0.14,0.29 -0.25,0.62 -0.32,0.95 -0.41,2.07 0.94,4.08 3.01,4.49 12.26,2.41 24.62,5.43 36.76,8.96 2.02,0.59 4.18,-0.55 4.73,-2.6 0.59,-2.02 -0.58,-4.15 -2.6,-4.73 -12.35,-3.6 -24.94,-6.67 -37.42,-9.13 -1.73,-0.34 -3.41,0.55 -4.16,2.06 z m -557.59,1088 c -0.49,1 -0.55,2.21 -0.04,3.3 0.89,1.91 3.16,2.75 5.07,1.86 11.47,-5.32 22.99,-11.2 34.24,-17.5 1.84,-1.03 2.49,-3.37 1.46,-5.2 -1.03,-1.84 -3.36,-2.5 -5.19,-1.47 -11.09,6.21 -22.43,12.01 -33.72,17.24 -0.82,0.38 -1.45,1.02 -1.82,1.77 z m -71.79,25.79 c -0.39,0.79 -0.5,1.72 -0.27,2.64 0.53,2.03 2.6,3.26 4.65,2.74 12.39,-3.19 24.78,-7 36.83,-11.33 1.97,-0.73 3.02,-2.9 2.3,-4.89 -0.71,-1.99 -2.9,-3.01 -4.89,-2.3 -11.82,4.25 -23.97,7.99 -36.14,11.12 -1.13,0.29 -2,1.05 -2.48,2.02 z m -75.31,12.07 c -0.29,0.58 -0.43,1.24 -0.39,1.93 0.14,2.1 1.95,3.7 4.06,3.56 12.7,-0.82 25.59,-2.26 38.29,-4.31 2.08,-0.34 3.51,-2.28 3.16,-4.37 -0.32,-2.08 -2.29,-3.5 -4.37,-3.17 -12.46,2.01 -25.11,3.43 -37.58,4.23 -1.41,0.1 -2.59,0.94 -3.17,2.13 z m -76.2,-2.72 c -0.18,0.36 -0.3,0.74 -0.36,1.16 -0.3,2.09 1.16,4.02 3.25,4.3 12.56,1.78 25.49,2.9 38.42,3.35 2.1,0.07 3.88,-1.57 3.95,-3.69 0.08,-2.1 -1.57,-3.87 -3.67,-3.94 -12.67,-0.45 -25.33,-1.54 -37.64,-3.27 -1.67,-0.24 -3.25,0.65 -3.95,2.09 z m -73.75,-19.19 c -0.05,0.1 -0.09,0.2 -0.13,0.3 -0.78,1.96 0.19,4.17 2.15,4.95 11.79,4.64 24.15,8.64 36.75,11.9 2.04,0.52 4.16,-0.65 4.65,-2.75 0.53,-2.03 -0.7,-4.12 -2.74,-4.64 -12.3,-3.19 -24.37,-7.09 -35.86,-11.62 -1.87,-0.73 -3.95,0.1 -4.82,1.86 z m -66.57,-36.97 c -0.8,1.61 -0.36,3.61 1.13,4.73 10.21,7.67 21.13,14.74 32.48,21.03 1.84,1.02 4.16,0.35 5.18,-1.49 1.18,-1.66 0.37,-4.17 -1.49,-5.19 -11.03,-6.12 -21.66,-13 -31.58,-20.45 -1.69,-1.27 -4.09,-0.93 -5.35,0.76 -0.14,0.2 -0.27,0.39 -0.37,0.61 z m -54.34,-53.37 c -0.63,1.28 -0.51,2.87 0.43,4.07 8.14,10.24 16.81,19.92 25.78,28.76 1.5,1.48 3.92,1.46 5.4,-0.03 1.5,-1.5 1.47,-3.92 -0.04,-5.41 -8.75,-8.63 -17.21,-18.07 -25.16,-28.07 -1.31,-1.65 -3.71,-1.93 -5.36,-0.61 -0.46,0.36 -0.81,0.8 -1.05,1.29 z m -40.97,-64.31 c -0.52,1.05 -0.55,2.31 0.02,3.43 5.95,11.65 12.35,22.92 19.05,33.49 1.14,1.78 3.49,2.31 5.27,1.18 1.79,-1.12 2.32,-3.49 1.19,-5.26 -6.58,-10.38 -12.87,-21.43 -18.71,-32.88 -0.95,-1.88 -3.25,-2.62 -5.13,-1.66 -0.76,0.38 -1.34,0.99 -1.69,1.7 z m -28.94,-70.58 c -0.43,0.86 -0.54,1.87 -0.22,2.85 2.73,8.58 5.74,17.21 8.98,25.64 1.35,3.52 2.73,7.02 4.17,10.51 0.8,1.95 3.02,2.88 4.98,2.09 1.94,-0.8 2.88,-3.04 2.08,-4.98 -1.41,-3.44 -2.77,-6.89 -4.11,-10.35 -3.17,-8.3 -6.14,-16.78 -8.82,-25.22 -0.64,-2.01 -2.79,-3.12 -4.8,-2.49 -1.02,0.33 -1.82,1.05 -2.26,1.95 z m -16.94,-74.36 c -0.33,0.67 -0.47,1.43 -0.36,2.23 1.81,12.7 4.16,25.43 6.98,37.85 0.47,2.06 2.51,3.34 4.57,2.88 2.05,-0.48 3.36,-2.52 2.87,-4.58 -2.77,-12.21 -5.09,-24.73 -6.86,-37.23 -0.29,-2.09 -2.22,-3.54 -4.32,-3.24 -1.29,0.18 -2.35,1 -2.88,2.09 z m -4.78,-76.13 c -0.24,0.5 -0.38,1.05 -0.39,1.64 -0.16,12.9 0.14,25.83 0.92,38.44 0.13,2.1 1.94,3.7 4.04,3.57 2.12,-0.13 3.71,-1.94 3.58,-4.05 -0.77,-12.41 -1.07,-25.15 -0.9,-37.86 0.02,-2.11 -1.66,-3.85 -3.77,-3.87 -1.52,-0.02 -2.84,0.85 -3.48,2.13 z m 6.22,-76.03 c -0.17,0.35 -0.3,0.73 -0.35,1.13 -1.9,12.84 -3.38,25.68 -4.41,38.16 -0.18,2.1 1.39,3.94 3.49,4.12 2.1,0.17 3.95,-1.38 4.11,-3.5 1.02,-12.31 2.49,-24.98 4.35,-37.66 0.31,-2.09 -1.13,-4.03 -3.21,-4.34 -1.68,-0.25 -3.27,0.64 -3.98,2.09 z m 15.4,-74.74 c -0.11,0.23 -0.21,0.47 -0.28,0.73 -3.29,12.58 -6.24,25.15 -8.76,37.34 -0.42,2.07 0.9,4.09 2.97,4.52 2.07,0.43 4.08,-0.92 4.51,-2.96 2.5,-12.07 5.42,-24.51 8.68,-36.97 0.53,-2.04 -0.7,-4.13 -2.73,-4.66 -1.78,-0.47 -3.61,0.41 -4.39,2 z m 22.67,-72.88 c -0.06,0.13 -0.12,0.26 -0.17,0.4 -4.4,12.28 -8.49,24.51 -12.18,36.35 -0.63,2.01 0.49,4.15 2.51,4.79 2.01,0.62 4.12,-0.5 4.78,-2.51 3.65,-11.75 7.72,-23.88 12.08,-36.05 0.71,-1.99 -0.33,-4.17 -2.31,-4.88 -1.84,-0.67 -3.86,0.18 -4.71,1.9 z m 115.32,-240.79 c -0.88,1.79 -0.23,3.99 1.52,5 1.84,1.05 4.17,0.42 5.22,-1.41 6.35,-11.06 12.75,-22.05 19.2,-32.96 0.99,-1.87 0.46,-4.17 -1.34,-5.23 -1.82,-1.07 -4.16,-0.47 -5.24,1.34 -6.46,10.94 -12.88,21.96 -19.25,33.05 -0.04,0.07 -0.07,0.14 -0.11,0.21 z m -87.03,169.86 c -0.03,0.06 -0.05,0.11 -0.07,0.17 -5.21,11.89 -10.2,23.78 -14.81,35.33 -0.78,1.96 0.17,4.18 2.13,4.96 1.96,0.78 4.23,-0.22 4.96,-2.13 4.58,-11.47 9.53,-23.28 14.7,-35.1 0.86,-1.93 -0.03,-4.18 -1.95,-5.03 -1.88,-0.82 -4.07,-0.01 -4.96,1.8 z m 50.06,-103.02 c -0.9,1.85 -0.18,4.09 1.64,5.07 1.87,0.98 4.18,0.27 5.17,-1.6 5.94,-11.23 12.01,-22.4 18.15,-33.51 1.16,-1.74 0.36,-4.17 -1.48,-5.19 -1.85,-1.02 -4.17,-0.35 -5.19,1.49 -6.18,11.15 -12.27,22.36 -18.23,33.64 -0.02,0.04 -0.04,0.07 -0.06,0.1 z m -22.82,44.59 c -3.89,7.89 -7.7,15.8 -11.45,23.73 -0.9,1.91 -0.09,4.19 1.82,5.09 1.9,0.89 4.15,0.2 5.09,-1.82 5.41,-11.45 10.96,-22.87 16.68,-34.25 0,-0.01 0.01,-0.02 0.01,-0.03 0.93,-1.87 0.17,-4.15 -1.7,-5.1 -1.89,-0.94 -4.18,-0.18 -5.13,1.7 -1.79,3.55 -3.56,7.11 -5.32,10.68" /><path
         id="path28"
         style="fill:#bd8ccc;fill-opacity:1;fill-rule:nonzero;stroke:none"
         d="m 3067.36,3974.24 c -0.87,1.77 -0.26,3.92 1.45,4.96 1.8,1.09 4.15,0.51 5.24,-1.29 3.3,-5.46 6.6,-10.9 9.91,-16.31 1.04,-1.84 0.53,-4.14 -1.27,-5.24 -1.81,-1.1 -4.16,-0.53 -5.25,1.27 -3.31,5.42 -6.62,10.86 -9.92,16.33 -0.05,0.09 -0.11,0.19 -0.16,0.28" /><path
         id="path30"
         style="fill:#71208c;fill-opacity:1;fill-rule:nonzero;stroke:none"
         d="m 3298.29,3679.27 -149.34,243.93 -87.1,-57.7 z" /><path
         id="path32"
         style="fill:#a94cac;fill-opacity:1;fill-rule:nonzero;stroke:none"
         d="m 3298.29,3679.27 -156.99,192.08 -79.45,-5.85 z" /><path
         id="path34"
         style="fill:#bd8ccc;fill-opacity:1;fill-rule:nonzero;stroke:none"
         d="m 3298.29,3679.27 -120.35,329.04 -28.99,-85.11 z" /><path
         id="path36"
         style="fill:#bd8ccc;fill-opacity:1;fill-rule:nonzero;stroke:none"
         d="m 3298.29,3679.27 -156.99,192.08 -27.23,-104.3 z" /><path
         id="path38"
         style="fill:#fbcfe7;fill-opacity:1;fill-rule:nonzero;stroke:none"
         d="m 7057.87,2655.94 c 11.62,15.11 22.75,30.33 33.35,45.57 l -33.35,-45.57" /><path
         id="path40"
         style="fill:#fbcfe7;fill-opacity:1;fill-rule:nonzero;stroke:none"
         d="m 6964.58,2619.85 127.06,82.27 c 52.65,75.84 92.67,151.92 119.54,214.16 -55.29,14.09 -169.73,-44.24 -169.73,-44.24 113.24,69.08 154,77.4 191.16,99.86 32.47,94.85 20.27,199.32 21.1,288.73 -117.66,-112.26 -152.11,-132.01 -152.11,-132.01 74.41,60.21 112.9,124.99 151.73,170.31 -5.97,222.54 -76.94,293.49 -76.94,293.49 -54.98,-38.04 -167.46,-139.22 -211.79,-176.55 -13.9,-104.62 -11.97,-235.86 -11.97,-235.86 -13.85,59.61 -16.01,148.08 -15.36,212.3 -63.21,-55.7 -52.38,-47.35 -95.92,-102.9 -17.71,-106.79 -3.3,-290.74 -3.3,-290.74 -21.2,70.09 -28.1,182.78 -30.34,245.3 -70.52,-101.04 -114.2,-203.72 -143.64,-312.44 12.05,-91.17 34.03,-182.33 34.03,-182.33 -18,36.58 -33.56,87.14 -45.85,135.19 -28.88,-124.57 -42.04,-257.62 -57.59,-405.45 l 20.3,-126.05 153.91,56.53 c 116.58,55.8 212.84,147.8 287.98,245.2 l -92.27,-34.77" /><path
         id="path42"
         style="fill:#fef5f6;fill-opacity:1;fill-rule:nonzero;stroke:none"
         d="m 6787.67,2614.83 c -21.52,-40.33 -44.03,-80.19 -68.58,-118.76 -24.48,-38.56 -51.4,-75.81 -82.64,-108.88 l -1.44,1.48 c 30.09,33.86 55.69,71.63 78.88,110.71 23.26,39.07 44.45,79.38 64.65,120.15 40.63,81.47 77.49,164.82 114.12,248.3 36.69,83.45 71.27,167.96 111.45,250.09 20.06,41.06 40.66,81.9 62.63,122.03 21.84,40.19 45.11,79.66 70.27,117.8 l 1.77,-1.04 c -40.49,-81.88 -78.56,-164.42 -116.05,-247.42 -37.3,-83.04 -76.71,-165.29 -115.06,-248.11 -38.54,-82.72 -77.37,-165.45 -120,-246.35" /><path
         id="path44"
         style="fill:#e5c6e7;fill-opacity:1;fill-rule:nonzero;stroke:none"
         d="m 7138.26,2090.26 c 14.03,10 27.62,20.25 40.71,30.69 l -40.71,-30.69" /><path
         id="path46"
         style="fill:#e5c6e7;fill-opacity:1;fill-rule:nonzero;stroke:none"
         d="m 7042.08,2087.36 137.41,34.02 c 65.03,51.98 118.04,108.23 155.79,156.11 -50.12,30.48 -170.81,14.18 -170.81,14.18 121.63,26.45 162.21,20.96 202.08,29.45 49.44,75.7 58.03,174.42 76.16,255.32 -134.22,-64.24 -170.99,-71.14 -170.99,-71.14 82.81,30.84 132.15,77.31 178.05,106.02 37.47,203.89 -16.63,291.01 -16.63,291.01 -59.94,-16.92 -187.07,-72.76 -236.69,-92.45 -33.56,-90.52 -57.17,-210.26 -57.17,-210.26 -1.68,58.55 13.41,139.54 26.49,197.61 -71.23,-30.32 -59.26,-26.21 -111.65,-62.69 -37.64,-91.26 -59.54,-262.84 -59.54,-262.84 -6.67,70.41 8.59,174.9 18.57,232.36 -87.01,-69.14 -148.67,-148.36 -197.89,-237.61 -6.16,-86.61 -2.83,-176.4 -2.83,-176.4 -10.12,38.97 -15.18,89.85 -17.62,137.4 -51.75,-103.83 -90.12,-220.38 -133.67,-349.58 l -5.04,-120.92 158.09,2.06 c 122.25,13.33 232.12,66.03 322.84,130.39 l -94.95,-2.04" /><path
         id="path48"
         style="fill:#fef5f6;fill-opacity:1;fill-rule:nonzero;stroke:none"
         d="m 6871.99,2139.43 c -28.39,-29.72 -57.64,-58.69 -88.58,-85.84 -30.88,-27.17 -63.83,-52.36 -100.11,-72.37 l -1.09,1.79 c 35.33,21.11 67.13,47.2 96.87,75.25 29.81,28.02 57.88,57.81 85.11,88.36 54.63,60.94 106.02,124.8 157.23,188.84 51.25,64.01 100.69,129.64 155.03,191.32 27.13,30.86 54.74,61.34 83.53,90.73 28.67,29.49 58.56,57.86 90.02,84.43 l 1.48,-1.51 c -54.58,-61.35 -106.97,-124.1 -158.9,-187.44 -51.76,-63.43 -105.38,-125.46 -158.11,-188.37 -52.88,-62.74 -106.03,-125.41 -162.48,-185.19" /><path
         id="path50"
         style="fill:#bd8ccc;fill-opacity:1;fill-rule:nonzero;stroke:none"
         d="m 7036.76,1768.76 c 141.73,-42.49 198.62,-70.06 248.86,-72.14 87.06,73.27 154.65,160.75 206.79,249.46 -182.68,-34.48 -289.48,18.1 -289.48,18.1 116.52,-29.11 246.03,0.74 311.07,20.38 121.71,226.06 147.88,447.39 147.88,447.39 -77.1,-1.72 -148.23,-6.71 -214.22,-14.75 -74.01,-95.27 -147.39,-227.56 -147.39,-227.56 20.29,68.66 68.89,158.38 106.4,222.06 -95.51,-13.92 -179.83,-34.58 -255.47,-61.33 -79.08,-94.92 -170.16,-288.04 -170.16,-288.04 18.91,83.94 76.64,200.99 110.27,264.86 -128.88,-54.36 -231.71,-128.06 -323.68,-217.17 -40.22,-98.96 -70.43,-204.45 -70.43,-204.45 2.9,48.38 16.27,109.12 31.48,165.2 C 6628.16,1965.45 6538.6,1841.3 6438.12,1704 l -51.92,-139.21 187.16,-45.03 c 288.37,-40.91 501.55,24.16 658.8,135.45 -47.5,50.53 -195.4,113.55 -195.4,113.55" /><path
         id="path52"
         style="fill:#9255b1;fill-opacity:1;fill-rule:nonzero;stroke:none"
         d="m 6426.88,1587.29 c 49.68,13.96 97.09,34.8 142.84,58.51 45.8,23.67 90.23,49.93 133.94,77.3 87.6,54.55 172.48,113.45 257.2,172.63 84.77,59.11 168.03,120.67 255.55,176.15 43.73,27.77 87.88,54.96 132.99,80.53 45.01,25.71 91.06,49.76 138.24,71.26 l 1.19,-2.21 c -87.7,-55.03 -173.32,-112.34 -258.66,-170.47 -85.14,-58.3 -171.95,-114.41 -258.03,-171.79 -86.21,-57.17 -172.73,-114.16 -262,-166.8 -44.78,-26.07 -90.28,-51.02 -137.09,-73.33 -46.74,-22.36 -95.18,-41.79 -145.56,-54.2 l -0.61,2.42" /><path
         id="path54"
         style="fill:#fbcfe7;fill-opacity:1;fill-rule:nonzero;stroke:none"
         d="m 3755.1,2919.04 c -6.7,17.87 -13.78,35.35 -21.18,52.38 l 21.18,-52.38" /><path
         id="path56"
         style="fill:#fbcfe7;fill-opacity:1;fill-rule:nonzero;stroke:none"
         d="m 3733.57,2817.96 0.05,154.15 c -36.87,84.62 -81.2,158.13 -120.82,213.04 -44.13,-42.24 -58.12,-173.21 -58.12,-173.21 3.8,135.25 19.79,175.7 21.22,219.98 -65.24,76.12 -164.57,117.24 -243.14,162.48 31.84,-160.68 29.57,-201.2 29.57,-201.2 -10.6,96.25 -45.82,162.77 -63.64,219.91 -200.12,105.43 -303.5,77.5 -303.5,77.5 2.13,-67.91 27.14,-218.46 34.74,-276.53 84.52,-64.44 201.64,-128.03 201.64,-128.03 -60.64,17.32 -140.07,59.42 -196.46,91.96 13.02,-84.03 11.85,-70.23 36.01,-136.66 84.25,-68.9 255.11,-147.61 255.11,-147.61 -74.1,15.99 -177.67,65.92 -234.21,95.04 48.91,-113.11 114.65,-203.11 193.89,-283.43 87.5,-34.64 180.68,-60.42 180.68,-60.42 -42.66,2.17 -96.26,13.46 -145.78,26.42 93.57,-87.71 203.65,-165.63 325.41,-253.05 l 123.06,-44.64 38.18,165.24 c 17.46,131.62 -8.73,263.16 -51.78,378.58 l -22.11,-99.52" /><path
         id="path58"
         style="fill:#e0a7d8;fill-opacity:1;fill-rule:nonzero;stroke:none"
         d="m 3636.66,2657.86 c 23.32,-39.24 45.66,-79.12 65.69,-120.19 20.07,-40.99 37.58,-83.5 48.91,-127.79 l -2.13,-0.56 c -12.69,43.65 -31.42,85.27 -52.68,125.36 -21.22,40.17 -44.7,79.11 -69.17,117.4 -48.75,76.72 -101.31,151.04 -154.12,225.21 -52.75,74.21 -107.64,147.06 -157.22,223.73 -24.81,38.3 -49.11,76.97 -72,116.52 -23.01,39.45 -44.57,79.82 -63.87,121.22 l 1.93,1.06 c 49.18,-76.82 100.35,-151.8 152.24,-226.5 52.04,-74.55 102.16,-150.59 153.4,-225.97 51.05,-75.49 101.93,-151.25 149.02,-229.49" /><path
         id="path60"
         style="fill:#bd8ccc;fill-opacity:1;fill-rule:nonzero;stroke:none"
         d="m 3557.45,2329.97 c 1.47,162.96 13.18,231.6 -0.03,285.39 -104.22,69.63 -217.49,114.28 -327.34,142.23 92.53,-182.68 69.66,-311.79 69.66,-311.79 -4.95,132.19 -76.26,260.06 -116.99,322.84 -276.48,59.4 -518.64,19.2 -518.64,19.2 25.47,-81.05 52.57,-154.77 81.31,-222.11 123.5,-49.06 285.94,-86.11 285.94,-86.11 -78.85,0.4 -188.68,24.29 -267.54,44.44 44.03,-96.77 91.75,-179.63 143.24,-251.45 124.68,-54.54 356.91,-91.65 356.91,-91.65 -94.59,-5.74 -236.12,19.44 -314.01,35.4 97.04,-119.65 206.55,-205.83 329.03,-275.79 117.02,-12.19 237.89,-11.79 237.89,-11.79 -52.08,-11.78 -120.43,-16.26 -184.41,-17.37 142.24,-74.02 301.04,-130.69 477.11,-194.86 l 163.2,-12.23 -9.77,211.81 c -45.19,317.61 -179.42,523.16 -345.39,655.37 -38.88,-65.74 -60.17,-241.53 -60.17,-241.53" /><path
         id="path62"
         style="fill:#9255b1;fill-opacity:1;fill-rule:nonzero;stroke:none"
         d="m 3936.49,1740.46 c -30,48.27 -66.58,92.04 -105.7,133.15 -39.09,41.19 -80.5,80.14 -122.87,117.99 -84.57,75.93 -172.92,147.65 -261.51,219.13 -88.53,71.53 -179.2,140.73 -264.74,216.3 -42.79,37.73 -85.1,76.09 -125.98,115.98 -41.02,39.73 -80.58,81.06 -117.79,124.39 l 1.97,1.92 c 85.11,-75.89 172.01,-148.88 259.67,-221.32 87.8,-72.19 173.79,-146.81 260.9,-220.28 86.92,-73.66 173.73,-147.69 256.82,-226 41.31,-39.37 81.66,-79.85 119.63,-122.52 37.98,-42.59 73.4,-87.87 101.99,-137.36 l -2.39,-1.38" /><path
         id="path64"
         style="fill:#bd8ccc;fill-opacity:1;fill-rule:nonzero;stroke:none"
         d="m 5066.37,4584.99 c 1.11,124.4 10.06,176.8 -0.03,217.86 -79.56,53.15 -166.03,87.24 -249.88,108.58 70.63,-139.46 53.18,-238.02 53.18,-238.02 -3.78,100.92 -58.21,198.52 -89.31,246.45 -211.05,45.34 -395.91,14.65 -395.91,14.65 19.45,-61.86 40.14,-118.13 62.07,-169.55 94.27,-37.45 218.28,-65.73 218.28,-65.73 -60.19,0.31 -144.03,18.54 -204.23,33.92 33.61,-73.86 70.04,-137.11 109.34,-191.94 95.18,-41.63 272.45,-69.96 272.45,-69.96 -72.2,-4.38 -180.24,14.83 -239.7,27.03 74.08,-91.35 157.67,-157.13 251.17,-210.54 89.32,-9.3 181.59,-8.99 181.59,-8.99 -39.76,-9 -91.93,-12.42 -140.77,-13.26 108.58,-56.51 229.8,-99.77 364.21,-148.75 l 124.58,-9.33 -7.46,161.68 c -34.5,242.44 -136.97,399.36 -263.66,500.28 -29.67,-50.19 -45.92,-184.38 -45.92,-184.38" /><path
         id="path66"
         style="fill:#9255b1;fill-opacity:1;fill-rule:nonzero;stroke:none"
         d="m 5355.7,4134.99 c -22.9,36.85 -50.82,70.26 -80.68,101.64 -29.84,31.44 -61.46,61.17 -93.8,90.07 -64.56,57.95 -131.99,112.71 -199.62,167.27 -67.59,54.61 -136.8,107.43 -202.1,165.12 -32.65,28.8 -64.95,58.09 -96.16,88.54 -31.31,30.33 -61.51,61.87 -89.91,94.94 l 1.49,1.47 c 64.98,-57.93 131.31,-113.65 198.23,-168.95 67.03,-55.1 132.66,-112.07 199.16,-168.15 66.35,-56.23 132.62,-112.74 196.04,-172.52 31.54,-30.04 62.33,-60.95 91.32,-93.53 28.99,-32.51 56.03,-67.06 77.85,-104.84 l -1.82,-1.06" /><path
         id="path68"
         style="fill:#6a50ad;fill-opacity:1;fill-rule:nonzero;stroke:none"
         d="m 5608.79,4765.21 c -105.77,-125.86 -168.47,-312.17 -186.38,-553.92 l -1.41,-178.68 91.31,6.84 14.39,7.24 c 91.47,46 178.08,89.56 254.52,144.33 -40.97,3.11 -74.34,9.26 -99.35,18.32 l -26.39,9.54 28.04,-1.1 c 0.72,-0.04 71.57,-2.69 139.42,5.17 74.77,61.12 133.22,131.81 183.26,221.75 -47.16,-12.08 -124.63,-28.37 -178.02,-21.83 l -26.84,3.3 26.52,5.29 c 1.36,0.27 136.16,27.53 208.03,71.01 28.75,60.59 53.95,127.91 76.93,205.53 -45.94,-15.24 -106.8,-32.01 -151.92,-30.64 l -27.05,0.74 25.92,7.79 c 0.94,0.28 94.9,28.73 165.96,67.63 15.33,56.64 29.61,118.86 42.48,185.03 -24.03,5.78 -155.33,33.66 -300.06,-6.41 -23.38,-55.08 -61.6,-162.21 -61.82,-274.28 l -8.67,-0.61 c -0.16,1.12 -15.27,111.32 32.53,262.92 -67.94,-24.33 -128.79,-61.94 -180.99,-111.87 -3.95,-28.69 -2.18,-63.07 0.73,-119.39 1.7,-33.08 3.82,-74.24 5.38,-126.18 l -8.69,-0.59 c -0.15,1.46 -15.32,142.09 -37.83,203.07 z m -196.57,-741.99 1.49,188.43 c 18.33,247.49 83.32,437.4 193.16,564.75 l 4.57,5.31 2.75,-6.46 c 11.83,-27.98 21.68,-77.1 28.77,-121.06 -0.6,12.31 -1.18,23.7 -1.73,34.27 -2.98,57.83 -4.78,92.72 -0.44,122.57 l 0.22,1.47 1.07,1.04 c 55.46,53.35 120.58,92.96 193.53,117.75 l 8.26,2.79 -2.71,-8.28 c -22.21,-67.78 -31.64,-127.53 -35.23,-173.24 12.92,77.61 38.1,145.35 55.03,184.93 l 0.83,1.92 2,0.56 c 162.64,45.69 309.18,6.41 310.64,6.01 l 3.89,-1.07 -0.76,-3.95 c -13.25,-68.6 -28.03,-133.03 -43.91,-191.51 l -0.49,-1.77 -1.6,-0.89 c -46.67,-25.78 -103.46,-47.08 -137.97,-58.97 41.09,4.88 88.4,18.83 124.36,31.1 l 7.93,2.71 -2.35,-8.05 c -23.88,-81.98 -50.16,-152.64 -80.34,-216.03 l -0.55,-1.17 -1.1,-0.68 c -51.91,-31.8 -134.5,-54.64 -179.8,-65.57 52.27,1.15 115.18,15.73 152.03,25.55 l 9.77,2.6 -4.82,-8.89 c -51.89,-95.61 -112.67,-169.97 -191.26,-234 l -0.99,-0.8 -1.25,-0.14 c -39.92,-4.71 -80.97,-5.77 -108.62,-5.83 21.75,-4.69 47.55,-7.96 77.15,-9.72 l 11.99,-0.72 -9.68,-7.13 c -79.36,-58.55 -169.75,-104.01 -265.45,-152.14 l -16.79,-8.08 -101.6,-7.61" /><path
         id="path70"
         style="fill:#6a50ad;fill-opacity:1;fill-rule:nonzero;stroke:none"
         d="m 5481.86,4107.95 -3.74,3.24 1.07,2.85 c 14.29,37.85 33.33,76.4 58.22,117.86 19.52,32.59 41.42,65.71 68.88,104.21 46.82,64.86 94.89,124.95 148.38,191.16 17.51,21.57 34.94,43.27 52.37,64.95 32.1,39.96 65.29,81.27 98.44,120.99 44.52,53.65 97.16,117.8 149.88,186.69 l 6.92,-5.29 c -52.82,-69.01 -105.52,-133.24 -150.11,-186.97 -33.09,-39.67 -66.26,-80.95 -98.34,-120.87 -17.43,-21.7 -34.89,-43.4 -52.4,-64.98 -53.39,-66.11 -101.38,-126.1 -148.06,-190.76 -27.32,-38.29 -49.08,-71.21 -68.49,-103.62 -24.62,-41.01 -43.45,-79.09 -57.54,-116.45 l -2.16,0.81 -3.32,-3.82" /><path
         id="path72"
         style="fill:#6a50ad;fill-opacity:1;fill-rule:nonzero;stroke:none"
         d="m 3354.12,3945.53 c 98.42,-83.65 244.43,-134.06 434.14,-149.88 l 139.97,-2.39 -4.66,70.95 -5.54,11.27 c -35.23,71.67 -68.6,139.58 -110.56,199.74 -2.81,-31.25 -7.85,-56.78 -15,-76.02 l -9.79,-26.29 1.36,28.03 c 0.03,0.56 2.62,56.2 -3.04,109.68 -47.18,58.75 -101.86,104.97 -171.43,144.76 9.15,-37.53 20.94,-97.43 15.46,-138.94 l -3.55,-26.82 -5.05,26.57 c -0.21,1.07 -20.66,107.23 -54.29,164.19 -47.05,22.84 -99.36,43.01 -159.62,61.53 11.58,-36.24 23.87,-83.7 22.59,-118.78 l -0.97,-27.05 -7.56,25.99 c -0.22,0.75 -21.88,74.73 -51.93,130.97 -44.19,12.39 -92.75,24.01 -144.45,34.58 -5.12,-20.89 -26.93,-122.62 2.99,-235.16 43.37,-18.85 127.29,-49.55 215.29,-50.54 l 0.53,-8.66 c -0.88,-0.15 -87.32,-11.17 -205.94,27.05 18.67,-52.9 47.56,-100.42 85.97,-141.37 22.45,-3.26 49.49,-2.11 93.68,-0.24 26.14,1.1 58.68,2.48 99.74,3.33 l 0.5,-8.69 c -1.14,-0.11 -109.93,-10.83 -158.84,-27.81 z m 583.42,-161.13 -149.72,2.56 c -195.47,16.28 -345.08,69.03 -444.96,156.79 l -5.27,4.62 6.48,2.67 c 18.99,7.84 50.14,14.4 80.51,19.44 -3.96,-0.16 -7.79,-0.32 -11.49,-0.48 -45.68,-1.95 -73.26,-3.1 -96.86,0.55 l -1.46,0.23 -1.03,1.08 c -41.81,44.26 -72.68,96.06 -91.75,153.97 l -2.73,8.28 8.26,-2.8 c 43.46,-14.67 82.73,-22.61 115.25,-26.77 -52.44,11.32 -97.4,28.68 -124.99,40.78 l -1.91,0.83 -0.54,2.01 c -34.96,128.95 -2.82,244.59 -2.49,245.75 l 1.1,3.87 3.95,-0.8 c 54.12,-10.97 104.88,-23.11 150.9,-36.06 l 1.78,-0.5 0.87,-1.62 c 18.06,-33.4 33.17,-73.26 42.68,-100.84 -4.34,30.14 -13.92,63.35 -22.46,89.17 l -2.63,7.97 8.02,-2.43 c 64.6,-19.46 120.23,-40.74 170.08,-65.03 l 1.16,-0.56 0.66,-1.11 c 22.89,-38.12 39.53,-96.84 48.49,-133.87 -1.83,39.2 -11.84,83.95 -18.76,110.97 l -2.52,9.79 8.85,-4.91 c 75.19,-41.69 133.52,-90.27 183.59,-152.88 l 0.79,-1 0.14,-1.26 c 2.97,-27.48 3.78,-55.63 3.83,-76.87 2.9,15.13 5.04,32.46 6.38,51.88 l 0.83,12 7.04,-9.75 c 45.69,-63.12 80.92,-134.83 118.24,-210.75 l 6.36,-13.66 5.33,-81.26" /><path
         id="path74"
         style="fill:#6a50ad;fill-opacity:1;fill-rule:nonzero;stroke:none"
         d="m 3909.12,3799.22 -2.83,1.1 c -29.86,11.59 -60.21,26.93 -92.76,46.89 -25.59,15.63 -51.59,33.16 -81.82,55.16 -51.11,37.61 -98.1,75.93 -149.86,118.53 -16.9,13.98 -33.89,27.89 -50.88,41.8 -31.31,25.64 -63.69,52.14 -94.81,78.59 -42.03,35.54 -92.29,77.56 -146.24,119.65 l 5.36,6.87 c 54.07,-42.18 104.4,-84.27 146.51,-119.87 31.08,-26.4 63.41,-52.89 94.7,-78.5 17,-13.91 34,-27.84 50.91,-41.83 51.65,-42.51 98.55,-80.75 149.45,-118.21 30.03,-21.85 55.84,-39.25 81.23,-54.77 32.1,-19.69 61.99,-34.8 91.36,-46.19 l -0.99,-2.57 3.67,-3.24 -3,-3.41" /><path
         id="path76"
         style="fill:#f6e6f4;fill-opacity:1;fill-rule:nonzero;stroke:none"
         d="m 7988.36,3927.24 c -2.03,0 -3.72,1.6 -3.82,3.65 -0.09,2.1 1.53,3.89 3.64,3.98 13.17,0.61 25.83,0.69 38.47,0.29 2.11,-0.08 3.76,-1.84 3.69,-3.95 -0.07,-2.06 -1.77,-3.69 -3.82,-3.69 -0.03,0 -0.08,0 -0.12,0 -12.43,0.41 -24.91,0.32 -37.88,-0.27 -0.05,-0.01 -0.1,-0.01 -0.16,-0.01 z m -75.88,-8.27 c -1.84,0 -3.46,1.32 -3.76,3.19 -0.34,2.09 1.06,4.05 3.14,4.39 12.13,1.99 24.94,3.73 38.03,5.19 2.05,0.24 3.99,-1.28 4.21,-3.37 0.23,-2.1 -1.28,-3.99 -3.37,-4.22 -12.97,-1.44 -25.63,-3.16 -37.63,-5.13 -0.21,-0.04 -0.42,-0.05 -0.62,-0.05 z m 189.61,-1.51 c -0.31,0 -0.64,0.04 -0.95,0.12 -11.56,2.95 -24.03,5.28 -37.06,6.95 -2.09,0.27 -3.56,2.18 -3.3,4.27 0.27,2.09 2.2,3.61 4.28,3.31 13.33,-1.71 26.11,-4.11 37.97,-7.13 2.04,-0.53 3.28,-2.6 2.75,-4.64 -0.44,-1.73 -1.99,-2.88 -3.69,-2.88 z m -263.96,-15.66 c -1.63,0 -3.14,1.05 -3.65,2.69 -0.62,2.01 0.51,4.16 2.52,4.77 11.85,3.68 24.35,7.02 37.16,9.94 2.06,0.51 4.1,-0.82 4.57,-2.87 0.47,-2.05 -0.82,-4.1 -2.87,-4.57 -12.62,-2.88 -24.93,-6.18 -36.6,-9.79 -0.37,-0.11 -0.76,-0.17 -1.13,-0.17 z m 332.8,-16.08 c -0.83,0 -1.66,0.27 -2.37,0.82 -9.1,7.18 -19.83,13.55 -31.92,18.94 -1.93,0.85 -2.79,3.11 -1.94,5.04 0.87,1.93 3.14,2.79 5.04,1.94 12.67,-5.66 23.96,-12.36 33.55,-19.93 1.65,-1.3 1.93,-3.7 0.63,-5.36 -0.75,-0.95 -1.87,-1.45 -2.99,-1.45 z m -403.19,-13.21 c -1.34,0 -2.64,0.72 -3.34,1.98 -1.01,1.85 -0.34,4.17 1.52,5.19 l 4.03,2.17 c 9.72,5.14 20.09,9.99 30.81,14.41 1.95,0.82 4.18,-0.13 4.98,-2.08 0.8,-1.94 -0.12,-4.18 -2.07,-4.98 -10.5,-4.33 -20.64,-9.07 -30.16,-14.1 l -3.93,-2.12 c -0.58,-0.32 -1.2,-0.47 -1.84,-0.47 z m -61.17,-45.28 c -0.98,0 -1.95,0.37 -2.69,1.12 -1.5,1.48 -1.5,3.9 -0.01,5.4 8.84,8.86 18.74,17.33 29.41,25.18 1.68,1.25 4.08,0.9 5.33,-0.82 1.25,-1.69 0.89,-4.08 -0.81,-5.33 -10.36,-7.62 -19.95,-15.84 -28.53,-24.43 -0.75,-0.75 -1.72,-1.12 -2.7,-1.12 z m 503.17,-5.13 c -1.84,0 -3.47,1.34 -3.76,3.22 -1.82,11.46 -5.81,22.41 -11.85,32.52 l -0.95,1.56 c -1.11,1.78 -0.57,4.14 1.22,5.25 1.77,1.11 4.14,0.58 5.26,-1.21 l 1.02,-1.67 c 6.56,-10.96 10.87,-22.83 12.83,-35.26 0.34,-2.08 -1.09,-4.04 -3.17,-4.37 -0.2,-0.03 -0.4,-0.04 -0.6,-0.04 z m -545.39,-57.84 c -0.45,0 -0.91,0.08 -1.36,0.26 -1.98,0.75 -2.95,2.96 -2.2,4.92 4.48,11.73 10.61,23.32 18.21,34.47 1.19,1.75 3.57,2.17 5.32,1 1.73,-1.19 2.18,-3.57 0.99,-5.31 -7.26,-10.65 -13.12,-21.71 -17.39,-32.89 -0.59,-1.51 -2.03,-2.45 -3.57,-2.45 z m 533.2,-16.54 c -0.5,0 -1.01,0.1 -1.5,0.31 -1.93,0.82 -2.85,3.06 -2.02,5 5.27,12.42 8.99,24.39 11.07,35.59 0.38,2.08 2.39,3.47 4.44,3.06 2.08,-0.38 3.45,-2.37 3.06,-4.44 -2.18,-11.76 -6.06,-24.26 -11.55,-37.19 -0.6,-1.46 -2.02,-2.33 -3.5,-2.33 z m -538.43,-58.37 c -1.69,0 -3.23,1.11 -3.68,2.82 -2.55,9.43 -3.83,19.35 -3.83,29.49 -0.01,3.22 0.13,6.45 0.38,9.65 0.17,2.11 2.15,3.59 4.1,3.51 2.1,-0.17 3.67,-2.01 3.51,-4.11 -0.24,-3.01 -0.36,-6.02 -0.35,-9.04 0,-9.48 1.2,-18.73 3.55,-27.51 0.55,-2.04 -0.65,-4.13 -2.69,-4.68 -0.34,-0.09 -0.67,-0.13 -0.99,-0.13 z m 500.23,-7.61 c -0.75,0 -1.52,0.23 -2.18,0.7 -1.73,1.21 -2.14,3.6 -0.93,5.31 7.98,11.36 14.73,21.74 20.64,31.76 1.09,1.82 3.44,2.41 5.23,1.36 1.81,-1.08 2.42,-3.42 1.35,-5.23 -6.03,-10.2 -12.89,-20.76 -20.98,-32.27 -0.74,-1.05 -1.92,-1.63 -3.13,-1.63 z m -456.24,-52.84 c -0.77,0 -1.54,0.23 -2.21,0.71 -11.27,8.05 -20.77,17.18 -28.24,27.15 -1.26,1.69 -0.92,4.09 0.77,5.35 1.69,1.26 4.07,0.91 5.34,-0.77 6.99,-9.35 15.93,-17.93 26.56,-25.51 1.72,-1.22 2.11,-3.61 0.89,-5.33 -0.74,-1.04 -1.92,-1.6 -3.11,-1.6 z m 864.85,-7.78 c -1.74,0 -3.3,1.19 -3.71,2.95 -0.49,2.05 0.79,4.1 2.84,4.58 l 8.94,2.12 c 2.03,0.54 4.12,-0.77 4.59,-2.83 0.49,-2.05 -0.78,-4.11 -2.83,-4.59 l -8.96,-2.12 c -0.29,-0.08 -0.59,-0.11 -0.87,-0.11 z m -454.12,-0.67 c -0.82,0 -1.63,0.25 -2.34,0.79 -1.67,1.29 -1.97,3.69 -0.68,5.36 7.76,10.07 15.44,20.2 23.01,30.38 1.27,1.69 3.67,2.03 5.35,0.78 1.68,-1.26 2.04,-3.65 0.78,-5.34 -7.6,-10.21 -15.3,-20.37 -23.11,-30.49 -0.74,-0.97 -1.87,-1.48 -3.01,-1.48 z m 379.43,-15.3 c -1.79,0 -3.39,1.27 -3.74,3.09 -0.4,2.07 0.96,4.08 3.03,4.48 12.47,2.41 24.92,4.95 37.33,7.61 2.03,0.38 4.08,-0.86 4.53,-2.94 0.44,-2.05 -0.87,-4.08 -2.93,-4.53 -12.46,-2.66 -24.95,-5.21 -37.49,-7.64 -0.23,-0.05 -0.49,-0.07 -0.73,-0.07 z m -720.9,-7.54 c -0.34,0 -0.7,0.05 -1.04,0.15 -13.23,3.77 -25.49,8.11 -36.45,12.91 -1.93,0.84 -2.81,3.09 -1.97,5.02 0.85,1.94 3.1,2.79 5.03,1.97 10.65,-4.66 22.59,-8.88 35.48,-12.56 2.02,-0.58 3.2,-2.69 2.62,-4.71 -0.47,-1.68 -2.01,-2.78 -3.67,-2.78 z m 645.69,-5.6 c -1.85,0 -3.48,1.35 -3.77,3.23 -0.32,2.09 1.1,4.04 3.18,4.37 12.57,1.94 25.11,4.01 37.62,6.19 2.02,0.42 4.05,-1.01 4.41,-3.1 0.36,-2.08 -1.02,-4.06 -3.1,-4.42 -12.56,-2.19 -25.14,-4.26 -37.75,-6.22 -0.19,-0.03 -0.4,-0.05 -0.59,-0.05 z m -570.8,-9.21 c -0.16,0 -0.33,0.01 -0.5,0.03 -13.8,1.84 -26.21,3.83 -37.95,6.09 -2.07,0.4 -3.42,2.4 -3.03,4.47 0.4,2.08 2.43,3.42 4.48,3.03 11.58,-2.24 23.85,-4.21 37.5,-6.01 2.09,-0.29 3.57,-2.2 3.28,-4.29 -0.25,-1.92 -1.89,-3.32 -3.78,-3.32 z m 495.14,-1.11 c -1.91,0 -3.55,1.44 -3.79,3.37 -0.23,2.1 1.25,4 3.35,4.24 12.63,1.48 25.23,3.08 37.81,4.8 2.05,0.28 4.01,-1.17 4.3,-3.26 0.28,-2.09 -1.18,-4.02 -3.27,-4.3 -12.63,-1.73 -25.27,-3.34 -37.95,-4.83 -0.16,-0.01 -0.3,-0.02 -0.45,-0.02 z m -419.2,-6.84 c -0.12,0 -0.22,0.01 -0.33,0.02 -12.71,1.08 -25.41,2.27 -38.09,3.59 -2.09,0.22 -3.61,2.1 -3.39,4.19 0.21,2.1 2.1,3.61 4.18,3.41 12.64,-1.31 25.29,-2.5 37.94,-3.58 2.1,-0.18 3.67,-2.03 3.48,-4.13 -0.17,-1.99 -1.83,-3.5 -3.79,-3.5 z m 343.21,-0.67 c -1.97,0 -3.64,1.52 -3.79,3.52 -0.18,2.1 1.38,3.94 3.49,4.1 12.67,1.02 25.31,2.16 37.95,3.41 2.24,0.17 3.98,-1.31 4.18,-3.41 0.21,-2.11 -1.32,-3.97 -3.42,-4.18 -12.68,-1.27 -25.39,-2.4 -38.1,-3.42 -0.1,-0.01 -0.21,-0.02 -0.31,-0.02 z m -267.04,-4.36 c -0.05,0 -0.11,0 -0.17,0 -12.75,0.61 -25.48,1.33 -38.2,2.17 -2.1,0.14 -3.7,1.96 -3.55,4.07 0.14,2.1 1.99,3.79 4.06,3.55 12.67,-0.84 25.34,-1.57 38.04,-2.17 2.12,-0.1 3.74,-1.89 3.63,-3.99 -0.1,-2.04 -1.77,-3.63 -3.81,-3.63 z m 190.83,-0.37 c -2.03,0 -3.72,1.61 -3.81,3.66 -0.09,2.1 1.55,3.88 3.66,3.98 12.68,0.55 25.37,1.23 38.05,2.01 2.29,0.18 3.92,-1.47 4.05,-3.57 0.13,-2.1 -1.47,-3.91 -3.57,-4.04 -12.73,-0.8 -25.46,-1.47 -38.21,-2.03 -0.05,-0.01 -0.11,-0.01 -0.17,-0.01 z m -76.32,-1.95 c -2.1,0 -3.81,1.7 -3.82,3.79 -0.02,2.11 1.68,3.83 3.79,3.85 12.7,0.09 25.41,0.3 38.1,0.62 2.31,0.04 3.87,-1.61 3.92,-3.72 0.06,-2.1 -1.61,-3.86 -3.72,-3.91 -12.75,-0.33 -25.49,-0.54 -38.24,-0.63 -0.02,0 -0.02,0 -0.03,0 z m -47.75,-6.69 c -0.86,0 -1.73,0.29 -2.44,0.89 -1.62,1.33 -1.85,3.75 -0.5,5.37 0.19,0.22 0.37,0.45 0.56,0.67 -8.78,0.15 -17.55,0.35 -26.33,0.61 -2.11,0.05 -3.77,1.81 -3.71,3.93 0.06,2.11 1.64,3.72 3.94,3.7 10.77,-0.32 21.54,-0.54 32.32,-0.7 5.81,7.09 11.58,14.2 17.29,21.35 1.33,1.64 3.73,1.89 5.37,0.59 1.65,-1.32 1.91,-3.72 0.59,-5.36 -4.82,-6.03 -9.68,-12.04 -14.58,-18.04 0.56,-0.66 0.89,-1.53 0.88,-2.47 -0.02,-2.09 -1.73,-3.78 -3.82,-3.78 -0.7,-0.06 -1.44,0.02 -2.17,0.03 -1.48,-1.81 -2.97,-3.61 -4.46,-5.41 -0.76,-0.91 -1.84,-1.38 -2.94,-1.38 z m -49.74,-57.94 c -0.91,0 -1.82,0.32 -2.54,0.96 -1.58,1.4 -1.72,3.82 -0.33,5.39 8.46,9.52 16.82,19.09 25.09,28.72 1.38,1.58 3.79,1.77 5.38,0.4 1.6,-1.38 1.79,-3.78 0.41,-5.39 -8.29,-9.65 -16.68,-19.26 -25.16,-28.8 -0.75,-0.85 -1.81,-1.28 -2.85,-1.28 z m -51.68,-56.22 c -0.95,0 -1.9,0.35 -2.64,1.05 -1.52,1.46 -1.59,3.87 -0.14,5.4 8.77,9.22 17.45,18.51 26.04,27.84 1.42,1.56 3.85,1.65 5.39,0.23 1.56,-1.42 1.65,-3.84 0.23,-5.39 -8.61,-9.38 -17.32,-18.69 -26.12,-27.94 -0.75,-0.79 -1.76,-1.19 -2.76,-1.19 z m -53.53,-54.47 c -0.98,0 -1.97,0.38 -2.71,1.14 -1.48,1.5 -1.47,3.92 0.03,5.4 9.08,8.93 18.05,17.93 26.96,26.97 1.48,1.51 3.89,1.51 5.4,0.04 1.5,-1.47 1.51,-3.9 0.04,-5.39 -8.94,-9.08 -17.94,-18.1 -27.04,-27.06 -0.74,-0.74 -1.7,-1.1 -2.68,-1.1 z m -55.27,-52.7 c -1.03,0 -2.05,0.41 -2.81,1.23 -1.43,1.55 -1.33,3.96 0.22,5.39 9.35,8.64 18.62,17.33 27.8,26.09 1.53,1.45 3.94,1.4 5.4,-0.13 1.46,-1.52 1.4,-3.94 -0.12,-5.4 -9.22,-8.77 -18.52,-17.5 -27.91,-26.17 -0.73,-0.67 -1.66,-1.01 -2.58,-1.01 z m -56.94,-50.89 c -1.06,0 -2.13,0.45 -2.88,1.32 -1.38,1.59 -1.21,4 0.38,5.38 9.63,8.33 19.18,16.72 28.64,25.18 1.55,1.4 3.95,1.28 5.39,-0.3 1.39,-1.57 1.27,-3.98 -0.31,-5.39 -9.49,-8.48 -19.06,-16.9 -28.72,-25.26 -0.72,-0.62 -1.61,-0.93 -2.5,-0.93" /><path
         id="path78"
         style="fill:#71208c;fill-opacity:1;fill-rule:nonzero;stroke:none"
         d="m 8899.13,3740.5 -284.3,-31.3 15.14,-103.37 z" /><path
         id="path80"
         style="fill:#a94cac;fill-opacity:1;fill-rule:nonzero;stroke:none"
         d="m 8899.13,3740.5 -240.64,-60.29 -28.52,-74.38 z" /><path
         id="path82"
         style="fill:#bd8ccc;fill-opacity:1;fill-rule:nonzero;stroke:none"
         d="m 8899.13,3740.5 -348.97,31.16 64.67,-62.46 z" /><path
         id="path84"
         style="fill:#bd8ccc;fill-opacity:1;fill-rule:nonzero;stroke:none"
         d="m 8899.13,3740.5 -240.64,-60.29 82.79,-69.04 z" /><path
         id="path86"
         style="fill:#6a50ad;fill-opacity:1;fill-rule:nonzero;stroke:none"
         d="m 6315.01,4695.97 c -57.37,0 -80.05,-23.7 -80.05,-74.69 0,-4.69 -8.92,-4.69 -8.92,0 0,50.99 -18.14,74.69 -80.04,74.69 -4.63,0 -4.63,8.94 0,8.94 63.8,0 80.04,29.54 80.04,74.61 0,4.69 8.92,4.69 8.92,0 0,-53.68 21.72,-74.61 80.05,-74.61 4.63,0 4.63,-8.94 0,-8.94" /><path
         id="path88"
         style="fill:#6a50ad;fill-opacity:1;fill-rule:nonzero;stroke:none"
         d="m 4252.21,5088.11 c -121.34,0 -169.31,-50.13 -169.31,-158 0,-9.91 -18.86,-9.91 -18.86,0 0,107.87 -38.39,158 -169.32,158 -9.79,0 -9.78,18.9 0.01,18.9 134.97,0 169.31,62.49 169.31,157.82 0,9.92 18.86,9.92 18.86,0 0,-113.54 45.94,-157.82 169.31,-157.82 9.79,0 9.79,-18.9 0,-18.9" /><path
         id="path90"
         style="fill:#fbcfe7;fill-opacity:1;fill-rule:nonzero;stroke:none"
         d="m 4327.87,1241.87 c -66.7,0 -93.07,-27.56 -93.07,-86.85 0,-5.45 -10.37,-5.45 -10.37,0 0,59.29 -21.1,86.85 -93.07,86.85 -5.38,0 -5.38,10.39 0,10.39 74.19,0 93.07,34.35 93.07,86.75 0,5.45 10.36,5.45 10.36,0 0,-62.41 25.26,-86.75 93.08,-86.75 5.38,0 5.38,-10.39 0,-10.39" /><path
         id="path92"
         style="fill:#fbcfe7;fill-opacity:1;fill-rule:nonzero;stroke:none"
         d="m 8029.65,2732.05 c -66.7,0 -93.07,-27.56 -93.07,-86.85 0,-5.45 -10.37,-5.45 -10.37,0 0,59.29 -21.09,86.85 -93.07,86.85 -5.38,0 -5.38,10.39 0,10.39 74.19,0 93.07,34.35 93.07,86.75 0,5.45 10.37,5.45 10.37,0 0,-62.41 25.25,-86.75 93.07,-86.75 5.38,0 5.38,-10.39 0,-10.39" /><path
         id="path94"
         style="fill:#fbcfe7;fill-opacity:1;fill-rule:nonzero;stroke:none"
         d="m 8054.58,4416.47 c -102.1,0 -142.46,-42.18 -142.46,-132.93 0,-8.35 -15.87,-8.35 -15.87,0 0,90.75 -32.3,132.93 -142.45,132.93 -8.23,0 -8.23,15.9 0.01,15.9 113.55,0 142.44,52.58 142.44,132.78 0,8.34 15.87,8.34 15.87,0 0,-95.53 38.66,-132.78 142.45,-132.78 8.24,0 8.24,-15.9 0.01,-15.9" /><path
         id="path96"
         style="fill:#ffffff;fill-opacity:1;fill-rule:nonzero;stroke:none"
         d="m 6700.5,4158.04 v -2410.5 c 0,-168.45 -136.53,-305.06 -304.97,-305.06 H 4125.18 c -168.45,0 -305.06,136.61 -305.06,305.06 v 2410.5 c 1.73,166.98 137.65,301.86 305.06,301.86 h 2270.35 c 167.41,0 303.24,-134.88 304.97,-301.86" /><path
         id="path98"
         style="fill:#6a50ad;fill-opacity:1;fill-rule:nonzero;stroke:none"
         d="M 6700.5,4158.04 H 3820.12 c 1.73,166.98 137.65,301.86 305.06,301.86 h 2270.35 c 167.41,0 303.24,-134.88 304.97,-301.86" /><path
         id="path100"
         style="fill:#ffffff;fill-opacity:1;fill-rule:nonzero;stroke:none"
         d="m 4184.89,4308.97 c 0,30.77 -24.94,55.71 -55.71,55.71 -30.77,0 -55.71,-24.94 -55.71,-55.71 0,-30.77 24.94,-55.71 55.71,-55.71 30.77,0 55.71,24.94 55.71,55.71" /><path
         id="path102"
         style="fill:#ffffff;fill-opacity:1;fill-rule:nonzero;stroke:none"
         d="m 4357.66,4308.97 c 0,30.77 -24.95,55.71 -55.71,55.71 -30.77,0 -55.72,-24.94 -55.72,-55.71 0,-30.77 24.95,-55.71 55.72,-55.71 30.76,0 55.71,24.94 55.71,55.71" /><path
         id="path104"
         style="fill:#ffffff;fill-opacity:1;fill-rule:nonzero;stroke:none"
         d="m 4530.43,4308.97 c 0,30.77 -24.95,55.71 -55.71,55.71 -30.78,0 -55.72,-24.94 -55.72,-55.71 0,-30.77 24.94,-55.71 55.72,-55.71 30.76,0 55.71,24.94 55.71,55.71" /><path
         id="path106"
         style="fill:#ffffff;fill-opacity:1;fill-rule:nonzero;stroke:none"
         d="M 5805.57,4253.26 H 4755.32 c -30.77,0 -55.71,24.94 -55.71,55.71 v 0 c 0,30.77 24.94,55.71 55.71,55.71 h 1050.25 c 30.77,0 55.71,-24.94 55.71,-55.71 v 0 c 0,-30.77 -24.94,-55.71 -55.71,-55.71" /><path
         id="path108"
         style="fill:#f2d264;fill-opacity:1;fill-rule:nonzero;stroke:none"
         d="m 7310.74,1383.07 33.19,-46.36 c 0,0 0.72,-65.15 -47.92,-68.49 -48.63,-3.34 -156.49,35.07 -153.47,66.87 3.03,31.8 12.94,47.98 12.94,47.98 h 155.26" /><path
         id="path110"
         style="fill:#f2d264;fill-opacity:1;fill-rule:nonzero;stroke:none"
         d="m 6961.3,1386.57 v -50.43 c 0,0 -24.7,-76.28 -62.16,-74.3 -37.47,1.98 -105.56,50.1 -101.77,94.4 3.78,44.29 -0.15,53.21 -0.15,53.21 l 164.08,-22.88" /><path
         id="path112"
         style="fill:#3a1a48;fill-opacity:1;fill-rule:nonzero;stroke:none"
         d="m 7311.01,3449.86 c 0,0 105.82,-436.14 89.84,-697.85 -15.99,-261.71 -80.69,-463.92 -75.18,-594.77 5.52,-130.86 -14.93,-774.17 -14.93,-774.17 0,0 -91.82,-60.39 -155.26,0 0,0 -10.53,669.12 -15.63,790.74 -4.98,118.91 -77.11,608.4 -77.11,608.4 0,0 -38.61,-473.09 -58.35,-583.82 -19.73,-110.72 -44.14,-842.15 -44.14,-842.15 0,0 -130.54,-67.11 -162.88,0 0,0 -16.47,751.57 0,842.15 16.47,90.6 -111.93,659.49 -81.89,893.42 30.03,233.95 58.46,325.39 58.46,325.39 l 537.07,32.66" /><path
         id="path114"
         style="fill:#f1ab2f;fill-opacity:1;fill-rule:nonzero;stroke:none"
         d="m 7155.48,1383.07 c 0,0 -73.63,-104.5 0,-145.41 73.62,-40.91 232.3,-118.42 276.15,-105.5 43.84,12.92 -35.56,168.4 -87.7,204.55 0,0 -52.19,-60.29 -110.66,-43.06 -58.46,17.22 -88.78,34.6 -77.79,89.42" /><path
         id="path116"
         style="fill:#f1ab2f;fill-opacity:1;fill-rule:nonzero;stroke:none"
         d="m 6960.25,1356.24 c 0,0 42.52,-89.03 30.95,-132.27 -11.56,-43.24 -80.98,-123.76 -104.11,-111.84 -23.14,11.94 -95.43,85 -107,134.2 -11.57,49.21 11.42,88.58 17.28,109.91 0,0 29.48,-72.62 87.67,-72.62 36.79,0 73.44,21.35 75.21,72.62" /><path
         id="path118"
         style="fill:#222136;fill-opacity:1;fill-rule:nonzero;stroke:none"
         d="m 6981.33,4896.98 c 71.93,71.94 202.29,95.61 304.97,-145.35 62.48,-146.61 130.21,-89.18 176.92,-171.81 32.69,-57.83 3.92,-133.33 24,-195.44 29.93,-92.6 151.42,-85.38 151.42,-255.35 0,-208.66 -975.08,-304.96 -1195.82,-71.71 -89.15,94.19 24,164.69 64.96,228.82 34.28,53.65 -27.96,104.21 -27.96,190.17 0,85.96 149.32,164.37 168.11,212.37 25.96,66.35 -0.32,202.11 150.11,245.12 90.27,25.83 183.29,-36.82 183.29,-36.82" /><path
         id="path120"
         style="fill:#f2d264;fill-opacity:1;fill-rule:nonzero;stroke:none"
         d="m 6980.18,4751.63 c 86.12,0 202.13,-81.2 195.02,-238.06 -6.09,-134.27 -61.75,-173.4 -97.51,-189.96 l 18.03,-90.11 133.17,-66.97 40.02,-86.05 -225.4,-189.95 -230.48,162.09 24.54,118.59 81.83,76.42 2.53,73.45 c 0,0 -93.71,66.01 -93.71,182.35 0,134.23 63.32,248.2 151.96,248.2" /><path
         id="path122"
         style="fill:#292827;fill-opacity:1;fill-rule:nonzero;stroke:none"
         d="m 6950.95,4399.58 c -1.76,0 -3.5,0.72 -4.75,2.15 -2.28,2.62 -2.02,6.6 0.6,8.88 40.78,35.7 86.53,35.57 122.39,-0.28 2.46,-2.46 2.46,-6.45 0,-8.9 -2.46,-2.46 -6.45,-2.46 -8.91,0 -44.17,44.19 -88.27,14.52 -105.19,-0.29 -1.19,-1.04 -2.67,-1.56 -4.14,-1.56" /><path
         id="path124"
         style="fill:#292827;fill-opacity:1;fill-rule:nonzero;stroke:none"
         d="m 7082.09,4567.48 c 0,-16.64 -7.4,-30.14 -16.52,-30.14 -9.14,0 -16.54,13.5 -16.54,30.14 0,16.64 7.4,30.13 16.54,30.13 9.12,0 16.52,-13.49 16.52,-30.13" /><path
         id="path126"
         style="fill:#292827;fill-opacity:1;fill-rule:nonzero;stroke:none"
         d="m 6952.45,4567.48 c 0,-16.64 -7.4,-30.14 -16.52,-30.14 -9.13,0 -16.53,13.5 -16.53,30.14 0,16.64 7.4,30.13 16.53,30.13 9.12,0 16.52,-13.49 16.52,-30.13" /><path
         id="path128"
         style="fill:#222136;fill-opacity:1;fill-rule:nonzero;stroke:none"
         d="m 6980.18,4751.63 c 0,0 20.42,-107.86 217.01,-110.72 l 13.93,131.72 -223,60.13 -250.93,-70.32 20.47,-111.8 c 0,0 199.28,-65 222.52,100.99" /><path
         id="path130"
         style="fill:#dcd921;fill-opacity:1;fill-rule:nonzero;stroke:none"
         d="m 7641.94,3855.91 c 0,0 63.48,2.35 77.58,29.88 0,0 32.87,-21.41 -10.19,-46.9 -43.04,-25.49 -67.39,17.02 -67.39,17.02" /><path
         id="path132"
         style="fill:#f2d264;fill-opacity:1;fill-rule:nonzero;stroke:none"
         d="m 7569.22,3772.28 c 0,0 19.65,74.85 66.09,82.88 75.65,13.06 121.77,-30.73 147.36,-30.73 85.16,0 105.2,20.45 116.9,40.25 0,0 34.71,-16.69 -5.01,-47.66 -22.48,-17.54 -53.49,-30.1 -145.34,-32.39 -31.9,-0.79 -89.73,-42.1 -108.31,-67.5 l -71.69,55.15" /><path
         id="path134"
         style="fill:#f9b63a;fill-opacity:1;fill-rule:nonzero;stroke:none"
         d="m 7536.24,3760.58 16.66,40.26 143.36,-93 -64.25,-58.3 -95.77,111.04" /><path
         id="path136"
         style="fill:#dcd921;fill-opacity:1;fill-rule:nonzero;stroke:none"
         d="m 6398.47,3875.7 c 0,0 -63.49,2.35 -77.59,29.88 0,0 -32.86,-21.41 10.18,-46.9 43.06,-25.49 67.41,17.02 67.41,17.02" /><path
         id="path138"
         style="fill:#f2d264;fill-opacity:1;fill-rule:nonzero;stroke:none"
         d="m 6490.46,3789.4 c 0,0 -19.64,74.85 -66.09,82.88 -75.64,13.06 -136.53,-17.04 -161.69,-21.74 -58.97,-11.02 -92.92,20.19 -104.62,39.99 0,0 -45.22,-21.85 14.95,-65.29 27.75,-20.04 45.6,-21.2 137.45,-23.49 31.9,-0.79 89.73,-42.11 108.32,-67.5 l 71.68,55.15" /><path
         id="path140"
         style="fill:#f9b63a;fill-opacity:1;fill-rule:nonzero;stroke:none"
         d="m 6533.89,3802.43 -28.76,22.81 -120.99,-96.2 51.56,-39.67 98.19,113.06" /><path
         id="path142"
         style="fill:#f9b63a;fill-opacity:1;fill-rule:nonzero;stroke:none"
         d="m 7021.1,4013.22 c 0,0 116.7,97.08 109,143.3 -7.71,46.23 -34.38,76.98 -34.38,76.98 l 191.97,-100.55 c 0,0 87.32,-521.3 10.28,-683.09 l -41.09,-71.91 c 0,0 -191.76,-105.28 -443.85,0 l -59.49,113 -41.08,531.58 c 0,0 20.21,103.2 31.44,110.9 11.23,7.7 175.5,114.2 175.5,114.2 0,0 -19.48,-60.74 -1.5,-114.68 17.98,-53.92 103.2,-119.73 103.2,-119.73" /><path
         id="path144"
         style="fill:#f1ab2f;fill-opacity:1;fill-rule:nonzero;stroke:none"
         d="m 6853.73,3792.69 c 0,0 88.89,-72.01 143.15,-54.33 0,0 -60.65,-35.05 -131.37,-2.79 -70.72,32.26 -11.78,57.12 -11.78,57.12" /><path
         id="path146"
         style="fill:#f1ab2f;fill-opacity:1;fill-rule:nonzero;stroke:none"
         d="m 6895.34,3717.13 18.45,-107.98 14.51,-174.82 10.8,-93.96 c 0,0 -70.99,6.54 -83.88,20.88 -12.9,14.33 40.12,355.88 40.12,355.88" /><path
         id="path148"
         style="fill:#f1ab2f;fill-opacity:1;fill-rule:nonzero;stroke:none"
         d="m 7165.91,3725.19 -2.93,-84.22 v -116.54 l 48.49,-165.42 c 0,0 27,2.94 38.76,18.21 11.76,15.27 -84.32,347.97 -84.32,347.97" /><path
         id="path150"
         style="fill:#f1ab2f;fill-opacity:1;fill-rule:nonzero;stroke:none"
         d="m 7216.19,3792.69 c 0,0 -88.9,-72.01 -143.15,-54.33 0,0 60.64,-35.05 131.36,-2.79 70.72,32.26 11.79,57.12 11.79,57.12" /><path
         id="path152"
         style="fill:#a94cac;fill-opacity:1;fill-rule:nonzero;stroke:none"
         d="m 7536.24,3161.28 c -11.55,0 -151.61,-54.23 -206.5,-48.45 0,0 -136.61,381.76 -145.27,453.99 -8.67,72.23 -70.72,619.74 -88.75,666.68 0,0 294.92,-103.29 325.67,-152.41 30.73,-49.11 54.89,-361.14 54.89,-361.14 l 57.78,69.45 135.79,-144.57 c 0,0 -225.36,-153.13 -262.92,-144.46 -37.56,8.67 -54.62,20.07 -54.62,20.07 l 183.93,-359.16" /><path
         id="path154"
         style="fill:#a94cac;fill-opacity:1;fill-rule:nonzero;stroke:none"
         d="m 6919.4,4247.63 c 0,0 -12.29,-1072 -85.4,-1156.79 l -248.54,78.94 76.02,93.58 50.98,216.38 c 0,0 -27.59,-17.55 -56.83,-8.77 -29.23,8.77 -236.85,216.38 -236.85,216.38 l 111.12,128.67 67.18,-49.91 c 0,0 25.84,219.63 52.01,309.07 74.54,63.75 163.94,116.75 270.31,172.45" /><path
         id="path156"
         style="fill:#93339e;fill-opacity:1;fill-rule:nonzero;stroke:none"
         d="m 7277.14,3946.01 c 0,0 40.11,-413.05 75.17,-425.57 7.45,-16.47 17.3,-33.76 17.3,-33.76 l -49.46,34 -37.21,148.55 -5.8,276.78" /><path
         id="path158"
         style="fill:#93339e;fill-opacity:1;fill-rule:nonzero;stroke:none"
         d="m 6740.06,3946.01 c 0,0 24.75,-413.05 -10.31,-425.57 -7.45,-16.47 -17.29,-33.76 -17.29,-33.76 l 49.46,34 4.8,118.61 -26.66,306.72" /><path
         id="path160"
         style="fill:#6a50ad;fill-opacity:1;fill-rule:nonzero;stroke:none"
         d="m 4594.78,3228.36 c -34.17,-44.69 -70.54,-93.32 -109.09,-145.89 -38.56,-52.57 -70.96,-106.45 -97.25,-161.65 h 206.34 z m 191.88,239.19 v -546.73 h 97.26 v -160.34 h -97.26 v -203.72 h -191.88 v 203.72 h -392.97 v 143.26 c 19.27,38.54 43.37,82.13 72.29,130.76 28.91,48.63 61.11,98.57 96.6,149.83 35.48,51.25 72.94,101.4 112.37,150.48 39.43,49.06 78.85,93.32 118.28,132.74 h 185.31" /><path
         id="path162"
         style="fill:#6a50ad;fill-opacity:1;fill-rule:nonzero;stroke:none"
         d="m 5424.07,3014.13 c 0,45.55 -2.2,86.95 -6.57,124.2 -4.4,37.23 -11.4,69.42 -21.03,96.6 -9.64,27.15 -22.79,48.18 -39.43,63.08 -16.65,14.89 -37.25,22.34 -61.77,22.34 -24.54,0 -44.91,-7.45 -61.11,-22.34 -16.22,-14.9 -29.37,-35.93 -39.42,-63.08 -10.09,-27.18 -17.32,-59.37 -21.69,-96.6 -4.4,-37.25 -6.58,-78.65 -6.58,-124.2 0,-45.57 2.18,-87.19 6.58,-124.86 4.37,-37.67 11.6,-70.1 21.69,-97.25 10.05,-27.17 23.2,-48.2 39.42,-63.09 16.2,-14.9 36.57,-22.34 61.11,-22.34 24.52,0 45.12,7.44 61.77,22.34 16.64,14.89 29.79,35.92 39.43,63.09 9.63,27.15 16.63,59.58 21.03,97.25 4.37,37.67 6.57,79.29 6.57,124.86 z m 199.77,0 c 0,-153.34 -29.13,-270.97 -87.4,-352.87 -58.28,-81.95 -138.66,-122.89 -241.17,-122.89 -102.51,0 -182.91,40.94 -241.17,122.89 -58.28,81.9 -87.39,199.53 -87.39,352.87 0,76.23 7.65,143.69 23,202.39 15.31,58.7 37.46,108.21 66.36,148.52 28.92,40.29 63.52,70.97 103.83,92 40.29,21.03 85.43,31.54 135.37,31.54 102.51,0 182.89,-40.97 241.17,-122.89 58.27,-81.93 87.4,-199.1 87.4,-351.56" /><path
         id="path164"
         style="fill:#6a50ad;fill-opacity:1;fill-rule:nonzero;stroke:none"
         d="m 6087.77,3228.36 c -34.18,-44.69 -70.54,-93.32 -109.09,-145.89 -38.56,-52.57 -70.97,-106.45 -97.25,-161.65 h 206.34 z m 191.89,239.19 v -546.73 h 97.25 v -160.34 h -97.25 v -203.72 h -191.89 v 203.72 H 5694.8 v 143.26 c 19.27,38.54 43.37,82.13 72.29,130.76 28.92,48.63 61.11,98.57 96.59,149.83 35.5,51.25 72.95,101.4 112.37,150.48 39.44,49.06 78.86,93.32 118.29,132.74 h 185.32" /><path
         id="path166"
         style="fill:#6a50ad;fill-opacity:1;fill-rule:nonzero;stroke:none"
         d="m 4306.66,2217.04 c 0,16.11 -3.63,28.64 -10.89,37.59 -7.26,8.95 -18.94,13.43 -35.06,13.43 -3.39,0 -6.92,-0.14 -10.59,-0.45 -3.69,-0.29 -7.31,-0.93 -10.89,-1.94 v -89.21 c 3.17,-2.19 7.41,-4.23 12.68,-6.11 5.26,-1.9 10.89,-2.84 16.85,-2.84 13.13,0 22.73,4.47 28.8,13.43 6.06,8.95 9.1,20.98 9.1,36.1 z m 37,0.6 c 0,-11.94 -1.54,-22.88 -4.63,-32.83 -3.08,-9.94 -7.51,-18.5 -13.27,-25.66 -5.78,-7.16 -12.99,-12.73 -21.63,-16.7 -8.66,-3.98 -18.46,-5.97 -29.39,-5.97 -7.37,0 -14.13,0.89 -20.3,2.68 -6.17,1.79 -11.24,3.78 -15.21,5.97 v -60.57 h -36.11 v 206.19 c 7.36,1.97 16.41,3.87 27.15,5.66 10.75,1.79 22.08,2.69 34.02,2.69 12.33,0 23.37,-1.9 33.12,-5.68 9.74,-3.78 18.05,-9.21 24.91,-16.26 6.86,-7.06 12.14,-15.61 15.82,-25.65 3.68,-10.05 5.52,-21.34 5.52,-33.87" /><path
         id="path168"
         style="fill:#6a50ad;fill-opacity:1;fill-rule:nonzero;stroke:none"
         d="m 4435.86,2165.12 c 11.13,0 19.59,0.6 25.36,1.79 v 39.98 c -1.99,0.6 -4.88,1.2 -8.65,1.79 -3.78,0.6 -7.96,0.91 -12.54,0.91 -3.98,0 -8.01,-0.31 -12.08,-0.91 -4.08,-0.59 -7.77,-1.69 -11.04,-3.28 -3.29,-1.59 -5.92,-3.83 -7.91,-6.71 -1.99,-2.88 -2.98,-6.52 -2.98,-10.89 0,-8.56 2.68,-14.47 8.05,-17.76 5.37,-3.28 12.64,-4.92 21.79,-4.92 z m -2.99,134.57 c 11.93,0 21.98,-1.49 30.14,-4.48 8.15,-2.98 14.67,-7.16 19.54,-12.53 4.87,-5.37 8.36,-11.88 10.45,-19.54 2.08,-7.67 3.12,-16.06 3.12,-25.21 v -94.59 c -5.56,-1.2 -13.97,-2.64 -25.2,-4.33 -11.24,-1.69 -23.93,-2.53 -38.05,-2.53 -9.35,0 -17.9,0.89 -25.66,2.68 -7.76,1.79 -14.37,4.67 -19.84,8.66 -5.48,3.97 -9.75,9.14 -12.83,15.51 -3.09,6.36 -4.63,14.22 -4.63,23.57 0,8.96 1.74,16.51 5.23,22.69 3.47,6.15 8.2,11.18 14.17,15.05 5.96,3.89 12.88,6.66 20.74,8.36 7.85,1.68 16.05,2.54 24.61,2.54 3.98,0 8.15,-0.25 12.54,-0.74 4.36,-0.51 9.04,-1.35 14.02,-2.54 v 5.96 c 0,4.18 -0.5,8.16 -1.49,11.94 -1,3.77 -2.74,7.11 -5.23,10 -2.49,2.88 -5.77,5.11 -9.84,6.71 -4.08,1.59 -9.2,2.38 -15.37,2.38 -8.35,0 -16.02,-0.58 -22.97,-1.78 -6.97,-1.19 -12.64,-2.59 -17.01,-4.17 l -4.48,29.24 c 4.57,1.59 11.24,3.18 19.99,4.76 8.75,1.59 18.1,2.39 28.05,2.39" /><path
         id="path170"
         style="fill:#6a50ad;fill-opacity:1;fill-rule:nonzero;stroke:none"
         d="m 4568.63,2221.81 c 0,-15.32 3.33,-26.5 10,-33.56 6.66,-7.06 15.27,-10.6 25.81,-10.6 5.76,0 11.19,0.8 16.26,2.39 5.08,1.59 9.2,3.48 12.39,5.67 v 80.86 c -2.59,0.59 -5.78,1.15 -9.56,1.64 -3.77,0.5 -8.55,0.75 -14.31,0.75 -13.14,0 -23.18,-4.34 -30.14,-12.98 -6.96,-8.65 -10.45,-20.05 -10.45,-34.17 z m 100.56,-66.24 c 0,-24.86 -6.32,-43.06 -18.95,-54.6 -12.63,-11.53 -31.98,-17.3 -58.03,-17.3 -9.55,0 -18.85,0.79 -27.9,2.38 -9.06,1.59 -17.26,3.68 -24.61,6.27 l 6.55,30.73 c 6.17,-2.59 13.18,-4.68 21.04,-6.27 7.86,-1.58 16.36,-2.38 25.51,-2.38 14.52,0 24.87,2.98 31.04,8.95 6.16,5.97 9.25,14.82 9.25,26.55 v 5.97 c -3.58,-1.79 -8.32,-3.58 -14.17,-5.37 -5.88,-1.79 -12.59,-2.68 -20.15,-2.68 -9.95,0 -19.05,1.59 -27.3,4.77 -8.26,3.18 -15.32,7.86 -21.19,14.02 -5.87,6.17 -10.44,13.87 -13.72,23.12 -3.28,9.26 -4.93,19.95 -4.93,32.08 0,11.34 1.75,21.78 5.22,31.33 3.48,9.55 8.56,17.71 15.22,24.47 6.67,6.76 14.78,12.03 24.33,15.81 9.54,3.78 20.38,5.68 32.52,5.68 11.73,0 22.87,-0.9 33.41,-2.69 10.55,-1.79 19.5,-3.69 26.86,-5.66 v -135.18" /><path
         id="path172"
         style="fill:#6a50ad;fill-opacity:1;fill-rule:nonzero;stroke:none"
         d="m 4811.22,2233.15 c 0,4.97 -0.7,9.7 -2.09,14.18 -1.4,4.47 -3.43,8.35 -6.11,11.63 -2.69,3.29 -5.97,5.87 -9.86,7.75 -3.87,1.9 -8.5,2.85 -13.86,2.85 -5.58,0 -10.45,-1.05 -14.63,-3.14 -4.18,-2.08 -7.71,-4.82 -10.6,-8.21 -2.88,-3.38 -5.12,-7.26 -6.71,-11.63 -1.59,-4.38 -2.68,-8.86 -3.28,-13.43 z m -104.74,-16.11 c 0,13.72 2.04,25.76 6.13,36.1 4.07,10.34 9.49,18.95 16.26,25.82 6.75,6.86 14.51,12.03 23.27,15.51 8.75,3.48 17.7,5.22 26.85,5.22 21.49,0 38.25,-6.67 50.28,-19.99 12.04,-13.33 18.05,-33.23 18.05,-59.67 0,-2 -0.05,-4.23 -0.14,-6.72 -0.11,-2.49 -0.26,-4.73 -0.45,-6.71 h -102.94 c 0.98,-12.54 5.41,-22.24 13.27,-29.09 7.86,-6.87 19.25,-10.3 34.17,-10.3 8.75,0 16.75,0.79 24.01,2.39 7.26,1.59 12.99,3.28 17.16,5.07 l 4.78,-29.54 c -2,-1 -4.73,-2.05 -8.21,-3.13 -3.48,-1.1 -7.46,-2.09 -11.93,-2.99 -4.48,-0.9 -9.31,-1.64 -14.47,-2.24 -5.18,-0.59 -10.45,-0.9 -15.82,-0.9 -13.72,0 -25.66,2.06 -35.8,6.13 -10.15,4.07 -18.51,9.74 -25.07,17 -6.56,7.27 -11.44,15.81 -14.62,25.66 -3.18,9.86 -4.78,20.64 -4.78,32.38" /><path
         id="path174"
         style="fill:#6a50ad;fill-opacity:1;fill-rule:nonzero;stroke:none"
         d="m 4955.04,2290.75 c 6.96,1.97 16,3.87 27.15,5.66 11.14,1.79 23.47,2.69 37,2.69 12.72,0 23.37,-1.75 31.92,-5.23 8.56,-3.48 15.37,-8.35 20.44,-14.62 5.08,-6.27 8.65,-13.82 10.74,-22.67 2.09,-8.86 3.14,-18.56 3.14,-29.09 v -87.73 h -36.1 v 82.05 c 0,8.36 -0.55,15.47 -1.65,21.34 -1.09,5.87 -2.88,10.64 -5.37,14.32 -2.49,3.68 -5.87,6.36 -10.14,8.05 -4.28,1.7 -9.5,2.54 -15.67,2.54 -4.58,0 -9.35,-0.3 -14.32,-0.9 -4.97,-0.59 -8.66,-1.09 -11.04,-1.49 v -125.91 h -36.1 v 150.99" /><path
         id="path176"
         style="fill:#6a50ad;fill-opacity:1;fill-rule:nonzero;stroke:none"
         d="m 5233.72,2217.94 c 0,15.51 -3.33,27.79 -9.99,36.85 -6.67,9.04 -15.97,13.58 -27.9,13.58 -11.93,0 -21.24,-4.54 -27.9,-13.58 -6.66,-9.06 -9.99,-21.34 -9.99,-36.85 0,-15.72 3.33,-28.16 9.99,-37.3 6.66,-9.15 15.97,-13.73 27.9,-13.73 11.93,0 21.23,4.58 27.9,13.73 6.66,9.14 9.99,21.58 9.99,37.3 z m 37,0 c 0,-12.34 -1.79,-23.58 -5.37,-33.72 -3.57,-10.15 -8.65,-18.8 -15.21,-25.96 -6.57,-7.16 -14.48,-12.73 -23.72,-16.71 -9.25,-3.99 -19.46,-5.97 -30.59,-5.97 -11.14,0 -21.29,1.98 -30.43,5.97 -9.16,3.98 -17.01,9.55 -23.57,16.71 -6.57,7.16 -11.69,15.81 -15.38,25.96 -3.68,10.14 -5.51,21.38 -5.51,33.72 0,12.32 1.83,23.52 5.51,33.57 3.69,10.04 8.85,18.64 15.52,25.8 6.66,7.17 14.57,12.69 23.72,16.56 9.15,3.88 19.19,5.82 30.14,5.82 10.94,0 21.03,-1.94 30.29,-5.82 9.24,-3.87 17.15,-9.39 23.71,-16.56 6.58,-7.16 11.69,-15.76 15.37,-25.8 3.69,-10.05 5.52,-21.25 5.52,-33.57" /><path
         id="path178"
         style="fill:#6a50ad;fill-opacity:1;fill-rule:nonzero;stroke:none"
         d="m 5306.23,2336.99 36.09,5.97 v -47.14 h 55.51 v -30.15 h -55.51 v -63.55 c 0,-12.53 2,-21.48 5.98,-26.85 3.97,-5.37 10.74,-8.06 20.28,-8.06 6.58,0 12.39,0.69 17.46,2.09 5.07,1.39 9.11,2.68 12.08,3.88 l 5.97,-28.65 c -4.17,-1.79 -9.65,-3.63 -16.41,-5.52 -6.76,-1.89 -14.72,-2.83 -23.87,-2.83 -11.13,0 -20.44,1.49 -27.9,4.48 -7.45,2.98 -13.38,7.3 -17.75,12.98 -4.38,5.66 -7.46,12.53 -9.24,20.58 -1.8,8.05 -2.69,17.26 -2.69,27.6 v 135.17" /><path
         id="path180"
         style="fill:#6a50ad;fill-opacity:1;fill-rule:nonzero;stroke:none"
         d="m 5565.82,2371.3 c 8.35,0 15.71,-0.74 22.08,-2.24 6.36,-1.49 11.13,-2.83 14.32,-4.02 l -6.86,-29.85 c -3.39,1.59 -7.31,2.88 -11.79,3.89 -4.48,0.99 -9.3,1.48 -14.47,1.48 -5.77,0 -10.64,-0.84 -14.62,-2.53 -3.98,-1.69 -7.16,-4.02 -9.55,-7.01 -2.39,-2.99 -4.08,-6.61 -5.07,-10.89 -1,-4.28 -1.49,-8.9 -1.49,-13.87 v -10.44 h 56.69 v -30.15 h -56.69 v -125.91 h -36.11 v 167.09 c 0,20.1 5.27,35.85 15.82,47.3 10.54,11.43 26.45,17.15 47.74,17.15" /><path
         id="path182"
         style="fill:#6a50ad;fill-opacity:1;fill-rule:nonzero;stroke:none"
         d="m 5722.76,2217.94 c 0,15.51 -3.33,27.79 -9.99,36.85 -6.67,9.04 -15.96,13.58 -27.91,13.58 -11.93,0 -21.23,-4.54 -27.89,-13.58 -6.67,-9.06 -10,-21.34 -10,-36.85 0,-15.72 3.33,-28.16 10,-37.3 6.66,-9.15 15.96,-13.73 27.89,-13.73 11.95,0 21.24,4.58 27.91,13.73 6.66,9.14 9.99,21.58 9.99,37.3 z m 37,0 c 0,-12.34 -1.79,-23.58 -5.38,-33.72 -3.57,-10.15 -8.64,-18.8 -15.2,-25.96 -6.57,-7.16 -14.48,-12.73 -23.73,-16.71 -9.25,-3.99 -19.44,-5.97 -30.59,-5.97 -11.14,0 -21.28,1.98 -30.43,5.97 -9.15,3.98 -17.01,9.55 -23.57,16.71 -6.56,7.16 -11.69,15.81 -15.36,25.96 -3.69,10.14 -5.53,21.38 -5.53,33.72 0,12.32 1.84,23.52 5.53,33.57 3.67,10.04 8.85,18.64 15.51,25.8 6.66,7.17 14.58,12.69 23.73,16.56 9.14,3.88 19.19,5.82 30.12,5.82 10.94,0 21.04,-1.94 30.29,-5.82 9.25,-3.87 17.15,-9.39 23.73,-16.56 6.56,-7.16 11.69,-15.76 15.36,-25.8 3.68,-10.05 5.52,-21.25 5.52,-33.57" /><path
         id="path184"
         style="fill:#6a50ad;fill-opacity:1;fill-rule:nonzero;stroke:none"
         d="m 5925.07,2144.53 c -6.97,-1.79 -16.02,-3.63 -27.16,-5.52 -11.14,-1.89 -23.37,-2.83 -36.7,-2.83 -12.53,0 -23.03,1.78 -31.47,5.37 -8.46,3.58 -15.23,8.55 -20.3,14.92 -5.07,6.36 -8.7,13.98 -10.89,22.82 -2.18,8.85 -3.29,18.55 -3.29,29.1 v 87.43 h 36.12 v -81.77 c 0,-16.7 2.44,-28.64 7.3,-35.8 4.87,-7.16 13.38,-10.74 25.52,-10.74 4.37,0 8.99,0.19 13.88,0.6 4.87,0.39 8.5,0.89 10.88,1.49 v 126.22 h 36.11 v -151.29" /><path
         id="path186"
         style="fill:#6a50ad;fill-opacity:1;fill-rule:nonzero;stroke:none"
         d="m 5971.01,2290.75 c 6.96,1.97 16,3.87 27.15,5.66 11.14,1.79 23.47,2.69 37,2.69 12.73,0 23.37,-1.75 31.93,-5.23 8.54,-3.48 15.36,-8.35 20.43,-14.62 5.09,-6.27 8.66,-13.82 10.75,-22.67 2.08,-8.86 3.13,-18.56 3.13,-29.09 v -87.73 h -36.1 v 82.05 c 0,8.36 -0.55,15.47 -1.65,21.34 -1.09,5.87 -2.88,10.64 -5.37,14.32 -2.49,3.68 -5.87,6.36 -10.14,8.05 -4.27,1.7 -9.5,2.54 -15.66,2.54 -4.58,0 -9.36,-0.3 -14.33,-0.9 -4.98,-0.59 -8.65,-1.09 -11.03,-1.49 v -125.91 h -36.11 v 150.99" /><path
         id="path188"
         style="fill:#6a50ad;fill-opacity:1;fill-rule:nonzero;stroke:none"
         d="m 6173.92,2218.23 c 0,-15.91 3.77,-28.39 11.33,-37.44 7.56,-9.06 18,-13.58 31.33,-13.58 5.76,0 10.69,0.25 14.77,0.75 4.08,0.49 7.41,1.04 10,1.64 v 89.52 c -3.19,2.18 -7.42,4.22 -12.68,6.11 -5.28,1.89 -10.9,2.83 -16.86,2.83 -13.14,0 -22.73,-4.48 -28.79,-13.43 -6.08,-8.95 -9.1,-21.08 -9.1,-36.4 z m 103.53,-73.7 c -7.17,-2.19 -16.16,-4.17 -27,-5.96 -10.85,-1.8 -22.24,-2.7 -34.17,-2.7 -12.34,0 -23.38,1.9 -33.12,5.68 -9.75,3.78 -18.05,9.2 -24.92,16.27 -6.85,7.05 -12.14,15.6 -15.81,25.65 -3.68,10.04 -5.52,21.34 -5.52,33.87 0,12.33 1.55,23.52 4.62,33.56 3.09,10.04 7.62,18.66 13.58,25.81 5.97,7.16 13.23,12.69 21.78,16.57 8.55,3.87 18.4,5.82 29.54,5.82 7.56,0 14.22,-0.9 20,-2.69 5.77,-1.79 10.74,-3.79 14.92,-5.96 v 74.89 l 36.1,5.96 v -226.77" />
   </g></g></svg>
