<svg width="603" height="422" viewBox="0 0 603 422" fill="none" xmlns="http://www.w3.org/2000/svg">
<g opacity="0.5">
<path d="M415.405 7.30444C415.405 7.30444 414.361 11.1639 415.849 14.7034C417.319 18.2229 433.524 36.9802 433.524 36.9802L427.728 37.5901C427.728 37.5901 404.848 22.6822 400.984 18.4528C400.994 18.4428 407.086 9.55412 415.405 7.30444Z" fill="#EA6227"/>
<path d="M463.345 13.8933C463.345 13.8933 465.333 17.2428 464.279 20.0624C463.225 22.882 441.132 39.5696 441.132 39.5696L444.672 40.0896L474.087 26.9914C474.087 26.9914 472.978 14.6932 463.345 13.8933Z" fill="#EA6227"/>
<path d="M461.598 9.23413C451.485 9.23413 439.338 33.1607 439.338 33.1607C439.338 33.1607 431.601 2.4851 424.169 0.235426C416.737 -2.01425 399.811 15.3432 399.811 18.4428C399.811 21.5523 427.737 37.58 427.737 37.58L428.698 37.72C422.228 33.3307 402.334 19.7426 402.334 18.4428C402.334 16.883 410.506 9.71406 414.37 11.1638C418.234 12.6136 437.906 39.0898 437.906 39.0898L441.141 39.5698C447.612 34.3905 466.036 19.8526 468.596 20.0626C471.721 20.3225 473.644 25.4618 473.496 26.2717C473.366 26.9616 450.468 37.1701 444.09 40.0097L444.672 40.0997C444.672 40.0997 474.087 29.8112 474.716 27.5615C475.344 25.3118 471.711 9.23413 461.598 9.23413Z" fill="#F2A51A"/>
<path d="M385.482 34.8008L391.74 121.818L485.993 123.048L492.289 34.8008H385.482Z" fill="#342EAD"/>
<path d="M431.656 34.8008L433.524 123.048H447.824L448.961 34.8008H431.656Z" fill="#F2A51A"/>
<path d="M387.183 52.9782L490.347 61.9469L492.289 34.8008H385.482L387.183 52.9782Z" fill="#191984"/>
<path d="M385.482 34.8008V52.9482L493.195 54.9979L492.289 34.8008H385.482Z" fill="#342EAD"/>
<path d="M448.712 54.148L448.961 34.8008H431.656L432.063 53.828L448.712 54.148Z" fill="#F2A51A"/>
<path d="M455.313 85.6931C455.313 85.6931 443.509 152.873 438.812 201.106C438.812 201.106 486.106 218.344 513.986 223.343L545.73 228.453C545.73 228.453 565.642 160.652 573.962 139.225L545.73 101.581C545.73 101.581 492.752 87.8728 455.313 85.6931Z" fill="#F2A51A"/>
<path d="M545.73 228.463C545.73 228.463 565.642 160.663 573.961 139.236L545.73 101.591C545.73 101.591 524.533 187.939 513.985 223.364L545.73 228.463Z" fill="#EA6227"/>
<path d="M490.209 89.9026L486.844 108.54L506.562 112.519L510.047 93.5521C503.77 92.2922 497.05 91.0324 490.209 89.9026Z" fill="#E4F9FF"/>
<path d="M450.395 115.949C446.54 139.925 441.659 171.891 438.812 201.116C438.812 201.116 471.906 213.185 499.047 220.054L507.856 210.945C492.197 158.223 474.716 111.609 474.716 111.609L450.395 115.949Z" fill="#54123B"/>
<path d="M444.109 197.347L445.449 187.299L454.98 189.828L451.837 200.007L444.109 197.347Z" fill="#040F16"/>
<path d="M456.376 190.458L454.148 200.547L461.904 203.226L465.37 193.368L456.376 190.458Z" fill="#040F16"/>
<path d="M466.896 193.888L464.215 203.796L471.98 206.326L474.291 196.167L466.896 193.888Z" fill="#040F16"/>
<path d="M324.979 148.484C324.979 148.484 360.495 124.938 410.506 112.669L474.716 111.61C474.716 111.61 489.812 164.802 493.195 208.666C493.195 208.666 459.417 223.813 436.797 230.672C436.797 230.672 368.778 241.031 356.363 243.501C356.363 243.491 336.424 193.138 324.979 148.484Z" fill="#EA6227"/>
<path d="M474.716 111.609L410.506 112.669C410.506 112.669 427.053 183.769 436.787 230.672C459.407 223.813 493.185 208.665 493.185 208.665C489.811 164.802 474.716 111.609 474.716 111.609Z" fill="#F2A51A"/>
<path d="M443.295 131.687L458.594 126.777L454.582 111.939L439.338 112.189L443.295 131.687Z" fill="#E4F9FF"/>
<path d="M357.527 240.631L354.967 231.292L364.211 229.352L365.256 239.591L357.527 240.631Z" fill="#040F16"/>
<path d="M365.663 229.292L367.465 239.051L375.221 238.011L374.583 227.923L365.663 229.292Z" fill="#040F16"/>
<path d="M376.109 227.712L377.449 237.511L385.15 236.351L383.393 226.492L376.109 227.712Z" fill="#040F16"/>
<path d="M440.901 143.895C440.901 143.895 438.664 126.187 429.17 119.148C417.883 110.789 416.801 126.857 429.17 146.494" stroke="#54123B" stroke-miterlimit="10"/>
<path d="M416.811 141.775L439.025 139.485C439.025 139.485 463.346 142.195 482.389 140.795C482.389 140.795 481.548 196.607 485.994 230.672C485.994 230.672 461.312 231.632 439.034 233.562C439.034 233.562 419.14 230.672 410.516 230.672C410.506 230.672 418.022 178.549 416.811 141.775Z" fill="#12CAD6"/>
<path d="M439.024 139.485L416.811 141.775C418.022 178.549 410.506 230.672 410.506 230.672C419.131 230.672 439.024 233.562 439.024 233.562C442.001 192.108 439.024 139.485 439.024 139.485Z" fill="#0FABBC"/>
<path d="M452.817 144.535C452.817 144.535 460.12 111.959 470.224 116.359C480.327 120.758 470.224 146.494 470.224 146.494" stroke="#54123B" stroke-miterlimit="10"/>
<path d="M397.722 203.296C397.722 203.296 384.613 193.388 373.188 172.821C361.762 152.254 349.883 193.398 380.786 208.666" stroke="#54123B" stroke-miterlimit="10"/>
<path d="M344.835 217.034C344.835 217.034 354.625 210.785 360.883 203.186L389.707 346.945C389.707 346.945 380.934 341.516 369.129 344.266L344.835 217.034Z" fill="#C72C41"/>
<path d="M360.883 203.186L448.194 190.768L485.993 309.661L389.706 346.945L360.883 203.186Z" fill="#EE4540"/>
<path d="M391.971 208.665C399.209 204.236 396.796 160.192 407.834 157.363C424.639 153.053 422.634 200.466 422.634 200.466" stroke="#54123B" stroke-miterlimit="10"/>
<path d="M570.624 179.23L562.064 187.489L564.856 199.537L596.943 210.215L602.72 189.908L570.624 179.23Z" fill="#EE4540"/>
<path d="M564.283 189.508C564.283 189.508 556.166 179.8 551.387 191.128C546.608 202.457 542.402 195.398 542.402 195.398" stroke="#54123B" stroke-miterlimit="10"/>
<path d="M573.499 195.787L578.25 190.018L574.516 188.778L574.932 187.319L580.358 189.128L580.053 190.218L575.172 196.357L573.499 195.787Z" fill="white"/>
<path d="M585.212 195.208C584.805 196.638 584.287 197.627 583.659 198.167C583.03 198.707 582.263 198.827 581.366 198.527C580.497 198.237 579.933 197.667 579.693 196.807C579.453 195.948 579.527 194.828 579.924 193.448C580.331 192.008 580.858 191.008 581.477 190.468C582.097 189.928 582.864 189.808 583.76 190.108C584.629 190.398 585.193 190.978 585.434 191.838C585.674 192.698 585.6 193.828 585.212 195.208ZM581.514 193.968C581.228 194.968 581.107 195.718 581.144 196.208C581.181 196.697 581.394 197.007 581.773 197.127C582.143 197.247 582.475 197.117 582.771 196.737C583.058 196.348 583.344 195.668 583.631 194.668C583.918 193.668 584.038 192.918 583.992 192.418C583.945 191.928 583.742 191.618 583.372 191.488C582.993 191.358 582.66 191.488 582.374 191.878C582.078 192.278 581.791 192.968 581.514 193.968Z" fill="white"/>
<path d="M589.981 194.988C589.741 195.847 589.399 196.437 588.974 196.767C588.549 197.097 588.031 197.157 587.439 196.967C586.866 196.777 586.496 196.407 586.312 195.867C586.127 195.328 586.154 194.628 586.395 193.798C586.885 192.088 587.717 191.438 588.909 191.838C589.491 192.028 589.88 192.398 590.065 192.948C590.24 193.478 590.213 194.168 589.981 194.988ZM587.689 194.228C587.55 194.698 587.495 195.068 587.504 195.328C587.513 195.588 587.606 195.748 587.781 195.797C588.114 195.907 588.41 195.498 588.678 194.548C588.946 193.618 588.909 193.088 588.576 192.978C588.401 192.918 588.244 192.998 588.105 193.198C587.957 193.418 587.818 193.758 587.689 194.228ZM594.243 193.728L587.717 200.517L586.478 200.107L593.004 193.318L594.243 193.728ZM594.354 200.017C594.114 200.867 593.772 201.467 593.346 201.797C592.921 202.127 592.403 202.187 591.812 201.997C591.239 201.807 590.869 201.437 590.684 200.897C590.499 200.357 590.527 199.667 590.758 198.827C591.248 197.117 592.08 196.467 593.272 196.867C593.855 197.057 594.243 197.427 594.428 197.977C594.613 198.517 594.585 199.197 594.354 200.017ZM592.061 199.267C591.923 199.737 591.867 200.107 591.876 200.367C591.886 200.627 591.978 200.787 592.154 200.837C592.487 200.947 592.782 200.537 593.05 199.587C593.319 198.657 593.282 198.127 592.949 198.017C592.773 197.957 592.616 198.037 592.477 198.237C592.329 198.457 592.191 198.797 592.061 199.267Z" fill="white"/>
<path d="M501.57 190.768C501.57 190.768 514.494 164.782 531.429 162.692C548.364 160.602 536.661 177.36 533.453 193.567" stroke="#54123B" stroke-miterlimit="10"/>
<path d="M467.58 178.07C467.58 178.07 454.98 258.378 439.034 300.842C439.034 300.842 476.454 312.63 515.094 327.728C515.094 327.728 530.449 320.349 540.599 322.909C540.599 322.909 550.758 241.75 564.125 195.547L553.929 190.758C553.92 190.768 500.248 186.028 467.58 178.07Z" fill="#FFE600"/>
<path d="M540.59 322.909C540.59 322.909 550.749 241.75 564.116 195.547L553.92 190.758C553.92 190.758 528.147 254.769 515.085 327.718C515.085 327.728 530.439 320.349 540.59 322.909Z" fill="#FBB03B"/>
<path d="M493.999 195.557C493.999 195.557 488.906 154.993 504.353 157.363C515.085 159.002 515.963 183.109 527.269 201.106" stroke="#54123B" stroke-miterlimit="10"/>
<path d="M392.572 241.381C392.572 241.381 385.242 261.608 385.639 268.207C386.037 274.806 389.096 280.395 389.096 280.395L450.136 291.664C450.136 291.664 459.195 287.204 464.214 282.095C469.234 276.976 480.512 241.971 480.512 241.971L392.572 241.381Z" fill="#24B224"/>
<path d="M493.195 241.961C490.634 245.96 484.57 282.115 484.57 282.115L542.402 295.913L550.453 241.381L493.195 241.961Z" fill="#5F93B2"/>
<path d="M486.668 273.516L543.973 287.274" stroke="#7FB1D6" stroke-miterlimit="10"/>
<path d="M372.152 364.233L320.024 210.325L293.004 212.935L292.671 208.955L319.691 206.346C321.355 206.186 322.918 207.255 323.491 208.955L334.667 241.97H560.843L536.744 350.825L372.152 364.233ZM336.035 245.96L374.666 360.013L533.776 347.055L556.175 245.96H336.035Z" fill="#CCCCCC"/>
<path d="M335.14 243.266L331.667 244.642L371.691 362.807L375.163 361.432L335.14 243.266Z" fill="#CCCCCC"/>
<path d="M372.684 243.402L369.119 244.462L398.595 360.42L402.16 359.359L372.684 243.402Z" fill="#CCCCCC"/>
<path d="M410.253 243.611L406.613 244.32L425.54 358.087L429.179 357.378L410.253 243.611Z" fill="#CCCCCC"/>
<path d="M447.783 243.793L444.097 244.117L452.48 355.681L456.165 355.357L447.783 243.793Z" fill="#CCCCCC"/>
<path d="M481.645 243.911L479.471 353.283L483.168 353.369L485.342 243.997L481.645 243.911Z" fill="#CCCCCC"/>
<path d="M519.158 243.678L506.451 350.857L510.118 351.366L522.826 244.186L519.158 243.678Z" fill="#CCCCCC"/>
<path d="M556.724 243.51L533.48 348.486L537.076 349.418L560.32 244.442L556.724 243.51Z" fill="#CCCCCC"/>
<path d="M530.375 391.169H361.364C358.48 391.169 356.705 387.76 358.203 385.09L371.939 360.674L375.101 362.753L361.364 387.17H530.375V391.169Z" fill="#CCCCCC"/>
<path d="M369.499 245.96L400.013 357.934L397.989 358.084L369.499 245.96Z" fill="#999999"/>
<path d="M406.882 245.96L427.229 355.734L425.537 358.084L406.882 245.96Z" fill="#999999"/>
<path d="M444.109 245.96L454.333 353.374L452.484 355.694L444.109 245.96Z" fill="#999999"/>
<path d="M481.584 245.96L481.344 351.325L479.458 353.285L481.584 245.96Z" fill="#999999"/>
<path d="M518.894 245.96L508.651 349.095L506.386 351.385L518.894 245.96Z" fill="#999999"/>
<path d="M558.514 241.961H333.382V245.96H558.514V241.961Z" fill="#CCCCCC"/>
<path d="M552.657 268.233L343.345 271.539L343.399 275.538L552.711 272.232L552.657 268.233Z" fill="#CCCCCC"/>
<path d="M546.808 294.5L353.314 301.033L353.429 305.03L546.923 298.497L546.808 294.5Z" fill="#CCCCCC"/>
<path d="M540.994 320.693L363.322 330.564L363.511 334.558L541.184 324.687L540.994 320.693Z" fill="#CCCCCC"/>
<path d="M535.136 346.956L373.282 360.158L373.56 364.146L535.414 350.944L535.136 346.956Z" fill="#CCCCCC"/>
<path d="M320.024 210.325L371.32 361.783L373.197 360.794L320.024 210.325Z" fill="#999999"/>
<path d="M296.84 203.586C292.653 203.586 289.26 207.255 289.26 211.785C289.26 216.314 292.653 219.984 296.84 219.984C301.028 219.984 304.421 216.314 304.421 211.785C304.421 207.255 301.028 203.586 296.84 203.586Z" fill="#F2A51A"/>
<path d="M520.982 241.96C520.982 241.96 551.516 233.222 558.514 237.511C565.511 241.81 594.242 327.728 594.242 327.728L573.97 338.227C573.961 338.227 528.535 239.711 520.982 241.96Z" fill="#7FB1D6"/>
<path d="M539.877 237.621C530.337 239.281 520.982 241.96 520.982 241.96C526.039 240.451 548.086 284.144 562.1 313.17C554.354 284.154 544.305 247.84 539.877 237.621Z" fill="#5F93B2"/>
<path d="M570.503 330.818L591.867 320.739" stroke="#5F93B2" stroke-miterlimit="10"/>
<path d="M527.269 240.631C527.269 240.631 535.792 243.41 546.885 265.537C557.978 287.664 576.928 336.687 576.928 336.687" stroke="#5F93B2" stroke-miterlimit="10"/>
<path d="M493.195 241.961C493.195 241.961 501.662 244.28 506.451 252.899C511.23 261.518 537.308 364.223 537.308 364.223L558.514 355.684C558.514 355.684 543.021 240.591 538.417 234.982C533.814 229.382 493.195 241.961 493.195 241.961Z" fill="#7FB1D6"/>
<path d="M498.824 240.311C498.824 240.311 508.9 244.32 512.644 249.709C516.388 255.099 542.401 361.793 542.401 361.793" stroke="#5F93B2" stroke-miterlimit="10"/>
<path d="M535.394 356.744L557.654 349.405" stroke="#5F93B2" stroke-miterlimit="10"/>
<path d="M392.573 241.38C390.53 242.38 377.024 274.916 370.442 283.374C363.86 291.833 327.004 317.229 327.004 317.229L336.026 334.577C336.026 334.577 372.846 317.699 382.432 310.71C392.018 303.721 407.335 261.747 407.335 261.747L459.75 259.248C459.75 259.248 440.513 277.585 429.161 283.374C417.809 289.154 390.382 303.781 390.382 303.781L397.99 320.699C397.99 320.699 435.225 311.83 452.225 301.682C469.225 291.523 480.512 241.97 480.512 241.97C480.512 241.97 419.713 228.102 392.573 241.38Z" fill="#00FF00"/>
<path d="M410.506 261.748C410.506 261.748 417.633 249.68 429.17 245.96C440.706 242.241 445.865 245.44 454.97 259.478L410.506 261.748Z" fill="#24B224"/>
<path d="M370.442 283.375C370.442 283.375 373.696 300.852 376.099 303.042C378.503 305.231 375.138 286.054 375.138 286.054" stroke="#24B224" stroke-miterlimit="10"/>
<path d="M435.955 280.395C435.955 280.395 448.305 297.303 452.234 295.903C456.163 294.513 439.024 280.395 439.024 280.395" stroke="#24B224" stroke-miterlimit="10"/>
<path d="M407.345 261.748C407.345 261.748 419.316 238.591 435.955 240.631C452.595 242.671 459.759 259.248 459.759 259.248" stroke="#24B224" stroke-miterlimit="10"/>
<path d="M385.639 421.875C392.465 421.875 397.999 415.889 397.999 408.506C397.999 401.124 392.465 395.138 385.639 395.138C378.813 395.138 373.28 401.124 373.28 408.506C373.28 415.889 378.813 421.875 385.639 421.875Z" fill="#040F16"/>
<path d="M378.706 389.17V406.137C378.706 410.277 381.812 413.636 385.639 413.636C389.466 413.636 392.572 410.277 392.572 406.137V389.17H378.706Z" fill="#CCCCCC"/>
<path d="M530.375 421.875C537.201 421.875 542.734 415.889 542.734 408.506C542.734 401.124 537.201 395.138 530.375 395.138C523.549 395.138 518.016 401.124 518.016 408.506C518.016 415.889 523.549 421.875 530.375 421.875Z" fill="#040F16"/>
<path d="M523.441 387.16V406.147C523.441 410.286 526.547 413.646 530.375 413.646C534.202 413.646 537.308 410.286 537.308 406.147V391.159C537.308 388.949 535.653 387.16 533.61 387.16H523.441Z" fill="#CCCCCC"/>
<path d="M297.69 54.8776C297.69 54.8776 311.455 51.0181 317.297 45.5589C323.139 40.0997 322.742 38.6999 326.116 37.1001C329.481 35.4904 349.79 24.6719 352.758 22.7422C352.758 22.7422 353.054 26.6216 350.678 29.4512C348.302 32.2808 336.22 38.8099 336.22 38.8099C336.22 38.8099 339.797 39.8397 338.457 44.789C338.457 44.789 342.857 47.1687 339.89 51.878C339.89 51.878 341.572 55.7574 339.4 58.747C337.218 61.7366 327.216 64.1962 327.216 64.1962C327.216 64.1962 327.216 62.2665 328.603 60.8767C328.603 60.8767 324.766 61.3666 320.2 60.0168C320.2 60.0168 309.061 68.2656 302.442 71.4752C302.433 71.4752 295.259 62.4065 297.69 54.8776Z" fill="#FFCFB6"/>
<path d="M338.041 52.778C338.041 52.778 335.093 49.1885 331.561 43.9393C328.03 38.69 326.117 37.0803 324.979 37.7002C322.752 39.11 322.391 40.7797 317.298 45.5391C316.299 46.4789 315.061 47.3588 313.702 48.1887C323.482 63.9364 327.993 47.8887 327.993 47.8887C332.356 54.7677 338.041 52.778 338.041 52.778Z" fill="#FFADA5"/>
<path d="M305.141 49.998L311.723 67.0656C311.723 67.0656 310.974 76.1042 294.529 87.3426C275.07 100.651 236.42 90.3622 228.692 92.8118C220.955 95.2715 193.768 117.278 163.9 113.169C134.032 109.06 132.026 79.6537 145.236 74.4045C145.236 74.4045 191.198 79.6437 229.616 69.8352C268.035 60.0266 297.2 43.6889 305.141 49.998Z" fill="#342EAD"/>
<path d="M305.141 49.9981L311.067 48.3384C311.067 48.3384 315.467 53.6476 320.191 62.2164L311.723 67.0657C311.723 67.0657 302.562 60.4366 305.141 49.9981Z" fill="#040F16"/>
<path d="M231.327 83.4535C231.327 83.4535 215.575 94.7219 193.934 94.7219C177.517 94.7219 165.481 81.7537 160.618 75.4946C151.198 75.0847 145.236 74.4048 145.236 74.4048C132.026 79.654 134.032 109.06 163.9 113.169C193.768 117.289 220.955 95.2718 228.692 92.8121C236.208 90.4225 272.907 100.071 292.837 88.4028C265.04 93.732 231.327 83.4535 231.327 83.4535Z" fill="#191984"/>
<path d="M132.1 340.366C75.9511 310.251 20.1997 285.244 20.1997 285.244L21.7989 274.576C60.9941 276.016 88.1719 283.845 106.364 292.203C97.074 267.747 82.1447 225.303 83.3649 208.095C85.1213 183.249 96.0941 170.831 96.0941 170.831L131.545 201.496C131.536 201.486 146.382 321.069 132.1 340.366Z" fill="#FFCFB6"/>
<path d="M131.536 201.486L96.0848 170.821C96.0848 170.821 85.112 183.249 83.3557 208.085C82.1354 225.293 97.0647 267.737 106.355 292.193C100.365 289.434 93.3948 286.744 85.3431 284.314C51.7869 282.495 21.9746 284.984 20.2089 285.134L20.1997 285.224C20.1997 285.224 75.9511 310.231 132.1 340.346C146.382 321.069 131.536 201.486 131.536 201.486Z" fill="#FFADA5"/>
<path d="M20.1261 285.155C20.1261 285.155 8.09948 305.212 4.62369 313.881C1.14789 322.549 -2.60523 299.803 2.48829 290.314C7.58181 280.825 4.77159 268.237 12.093 270.397C15.6057 271.437 21.7253 274.486 21.7253 274.486L20.1261 285.155Z" fill="#FFCFB6"/>
<path d="M131.537 201.486L96.0853 170.821C96.0853 170.821 85.1125 183.249 83.3561 208.085C82.1359 225.293 97.0651 267.737 106.356 292.193C99.8661 289.214 92.2305 286.294 83.3191 283.715C82.5519 299.642 79.1408 317 79.2425 338.207L132.091 340.346C146.383 321.069 131.537 201.486 131.537 201.486Z" fill="#84142D"/>
<path d="M93.4323 255.519C104.34 274.766 120.749 297.383 136.917 324.149C140.559 296.503 136.196 245.33 133.45 218.654C131.527 213.935 129.845 209.435 128.468 205.236L96.0947 170.821C96.0947 170.821 85.1219 183.249 83.3655 208.085C82.6537 218.154 87.4606 236.841 93.4323 255.519Z" fill="#54123B"/>
<path d="M6.99946 293.553C10.1147 285.554 14.4133 277.435 17.2512 272.396C15.5041 271.626 13.5813 270.836 12.1022 270.406C4.78087 268.247 7.58185 280.845 2.49757 290.324C-2.59595 299.802 1.15717 322.559 4.63296 313.89C6.149 310.101 9.3105 304.132 12.3795 298.612L6.99946 293.553Z" fill="#040F16"/>
<path d="M118.53 194.667C118.53 194.667 124.687 313.37 122.644 320.229L80.4165 314.59" stroke="#54123B" stroke-miterlimit="10"/>
<path d="M164.363 45.9788C164.363 45.9788 157.911 59.8667 145.644 72.4649C145.644 72.4649 156.487 84.3532 163.771 88.3727C163.771 88.3727 172.313 65.6459 178.922 57.997L164.363 45.9788Z" fill="#FFCFB6"/>
<path d="M164.363 45.9788C164.363 45.9788 162.921 49.0783 160.11 53.6876C162.255 58.5369 165.823 64.3961 171.712 69.9853C174.051 65.226 176.611 60.6866 178.931 58.007L164.363 45.9788Z" fill="#FFADA5"/>
<path d="M192.076 28.9414C192.076 28.9414 195.219 35.6004 198.103 38.2501C200.997 40.8997 193.768 43.1993 193.768 43.1993L192.076 28.9414Z" fill="#FFADA5"/>
<path d="M186.613 45.9789H194.536C194.526 45.6989 194.526 45.4089 194.517 45.129C194.147 32.4908 193.898 21.9923 188.823 13.3136C183.748 4.6348 163.253 5.11474 155.072 15.9932C145.643 28.5314 161.858 53.9077 167.45 57.9771C174.883 63.3964 187.926 64.2562 190.672 62.7064C192.52 61.6566 193.26 57.9071 193.491 53.2478C188.804 50.4682 186.613 45.9789 186.613 45.9789Z" fill="#FFCFB6"/>
<path d="M172.516 22.5722L198.113 16.3031C198.113 16.3031 192.945 1.72517 184.588 0.155393C176.232 -1.41438 155.081 9.31408 150.866 14.0934C146.65 18.8727 141.012 30.411 136.251 33.1606C131.499 35.9102 116.145 32.0608 110.45 34.1405C104.756 36.2302 94.948 45.1989 91.0839 48.5884C87.2199 51.9779 76.9589 48.7684 72.2814 53.5877C67.6038 58.407 63.749 74.1347 63.749 74.1347C63.749 74.1347 73.2612 74.1547 90.4923 91.1923C107.723 108.23 131.832 112.709 131.832 112.709C131.832 112.709 141.363 98.4012 145.643 88.3727C149.923 78.3341 157.559 58.087 160.11 53.6877C162.652 49.2783 170.445 40.0896 172.516 22.5722Z" fill="#F2A51A"/>
<path d="M178.922 5.98459C177.295 5.2147 171.998 4.4748 167.885 3.99487C160.388 7.17442 153.14 11.5038 150.857 14.0934C146.642 18.8727 141.003 30.4111 136.242 33.1607C131.491 35.9103 116.136 32.0608 110.442 34.1405C104.747 36.2302 94.9392 45.1989 91.0751 48.5885C87.2111 51.978 76.9501 48.7684 72.2726 53.5877C67.595 58.407 63.7402 74.1348 63.7402 74.1348C63.7402 74.1348 73.2524 74.1548 90.4835 91.1923C107.715 108.23 131.823 112.709 131.823 112.709C131.823 112.709 141.354 98.4013 145.634 88.3727C149.914 78.3442 157.55 58.0871 160.101 53.6877C162.653 49.2884 170.445 40.0997 172.507 22.5822L186.207 19.2327C184.284 14.5834 180.854 6.90446 178.922 5.98459Z" fill="#EA6227"/>
<path d="M96.0942 170.821C96.0942 170.821 75.0637 193.897 87.2752 229.812C99.4867 265.727 180.022 322.909 180.022 322.909C180.022 322.909 189.931 368.502 269.958 412.496L275.569 403.557C275.569 403.557 160.701 267.867 131.536 201.486L96.0942 170.821Z" fill="#FFCFB6"/>
<path d="M275.569 403.557C275.569 403.557 294.307 390.879 300.843 384.61C307.378 378.341 301.896 400.677 293.577 406.947C285.257 413.216 282.881 425.904 277.085 420.605C274.303 418.055 269.958 412.496 269.958 412.496L275.569 403.557Z" fill="#FFCFB6"/>
<path d="M234.747 353.415C198.732 307.881 149.276 241.871 131.537 201.486L96.0854 170.821C96.0854 170.821 75.0549 193.897 87.2664 229.812C99.478 265.717 180.013 322.909 180.013 322.909C180.013 322.909 185.522 348.245 221.482 379.371C226.797 369.772 231.54 360.174 234.747 353.415Z" fill="#FFADA5"/>
<path d="M193.445 387.75C201.469 380.391 228.129 356.884 233.047 351.265C197.189 305.831 148.999 241.241 131.537 201.496L96.0854 170.831C96.0854 170.831 75.0549 193.907 87.2664 229.822C99.4964 265.717 158.252 312.51 193.445 387.75Z" fill="#84142D"/>
<path d="M300.843 384.61C297.922 387.409 292.551 391.499 287.513 395.158L289.149 402.907C283.76 408.436 276.956 413.296 272.843 416.025C274.202 417.635 275.801 419.425 277.077 420.595C282.873 425.894 285.248 413.206 293.568 406.936C301.897 400.677 307.388 378.351 300.843 384.61Z" fill="#040F16"/>
<path d="M113.492 180.329C113.492 180.329 104.997 205.336 131.213 245C157.429 284.664 216.906 366.583 216.906 366.583" stroke="#54123B" stroke-miterlimit="10"/>
<path d="M130.215 196.027C130.215 196.027 122.607 206.205 115.063 210.935" stroke="#54123B" stroke-miterlimit="10"/>
<path d="M156.81 45.6387C145.957 56.6971 145.957 61.1165 136.048 67.0456C127.959 71.8949 111.8 84.7531 101.031 99.7109C103.527 101.371 106.032 102.84 108.482 104.13C114.481 93.7718 124.723 77.9441 134.3 72.1449C149.026 63.2262 150.829 57.1271 156.912 50.698C156.912 50.698 145.809 68.5454 140.439 74.4046C137.046 78.094 123.864 95.0316 114.583 107.06C124.271 111.299 131.841 112.709 131.841 112.709C131.841 112.709 141.372 98.4011 145.652 88.3726C149.932 78.344 157.568 58.0869 160.119 53.6876C162.671 49.2882 170.464 40.0995 172.525 22.582C172.516 22.572 167.663 34.5803 156.81 45.6387Z" fill="#F2A51A"/>
<path d="M85.0664 196.027L105.755 202.306" stroke="#54123B" stroke-miterlimit="10"/>
<path d="M189.728 28.5215C189.192 28.5215 188.767 29.3414 188.767 30.3612C188.767 31.3811 189.202 32.2009 189.728 32.2009C190.255 32.2009 190.69 31.3811 190.69 30.3612C190.69 29.3414 190.265 28.5215 189.728 28.5215Z" fill="#040F16"/>
<path d="M171.48 37.58C171.48 37.58 162.56 26.3816 160.156 33.1606C157.753 39.9397 168.356 48.3385 168.356 48.3385L171.48 37.58Z" fill="#FFCFB6"/>
<path d="M145.643 72.4551C135.733 75.2047 120.462 84.7533 113.501 114.649C106.54 144.545 96.1035 170.821 96.1035 170.821C96.1035 170.821 112.577 195.767 131.555 201.486C131.555 201.486 153.63 168.411 166.488 157.603C179.347 146.784 168.365 119.788 163.78 88.3628C162.855 82.1337 154.369 70.0354 145.643 72.4551Z" fill="#342EAD"/>
<path d="M266.224 197.707C266.224 197.707 275.828 204.236 281.319 203.916C286.82 203.596 294.317 197.777 297.441 197.997C300.566 198.217 313.119 212.495 318.166 217.044C318.166 217.044 316.752 218.224 313.563 216.694C310.364 215.165 305.243 210.025 305.243 210.025C305.243 210.025 306.491 215.304 306.167 217.044C305.844 218.784 303.089 218.824 303.089 218.824C303.089 218.824 303.237 221.354 302.498 222.244C301.758 223.123 299.003 222.883 299.003 222.883C299.003 222.883 298.264 224.543 297.293 225.683C296.332 226.823 285.553 222.323 285.553 222.323C285.553 222.323 286.967 219.994 292.985 221.444C292.985 221.444 287.578 221.924 284.037 215.734C284.037 215.734 269.505 214.455 260.224 211.845C260.224 211.835 261.916 203.006 266.224 197.707Z" fill="#FFCFB6"/>
<path d="M272.528 198.507L277.538 202.307C277.538 202.307 276.651 209.376 273.674 218.814L264.772 214.985C264.772 214.985 263.505 203.136 272.528 198.507Z" fill="#040F16"/>
<path d="M169.512 38.3197C169.512 38.3197 163.318 31.7306 162.634 34.9402C161.95 38.1497 165.638 42.819 165.638 42.819L169.512 38.3197Z" fill="#FFADA5"/>
<path d="M188.498 34.4502C186.067 33.1604 180.206 33.0405 181.584 36.17C182.952 39.2996 194.184 37.4698 188.498 34.4502Z" fill="#FFADA5"/>
<path d="M183.59 25.9516C183.59 25.9516 183.701 24.5618 185.606 23.382C187.51 22.2021 191.623 20.6224 192.104 21.3423C192.585 22.0622 192.104 23.5519 192.104 23.5519L183.59 25.9516Z" fill="#F2A51A"/>
<path d="M161.867 161.992C163.484 160.312 165.037 158.813 166.47 157.613C173.339 151.834 173.403 141.445 171.277 128.217L130.224 102.761C130.224 102.761 125.047 141.075 161.867 161.992Z" fill="#191984"/>
<path d="M272.528 198.507L264.773 214.985C264.773 214.985 257.923 220.224 239.351 213.955C217.369 206.536 199.583 168.031 192.844 163.252C186.105 158.473 152.992 150.324 136.538 123.048C120.083 95.7718 139.505 75.0748 151.754 82.5537C151.754 82.5537 177.841 123.828 209.631 149.124C241.422 174.42 271.826 187.869 272.528 198.507Z" fill="#342EAD"/>
<path d="M119.01 117.538C120.924 103.371 123.642 93.152 126.341 85.853C121.22 92.2821 116.552 101.491 113.492 114.649C106.531 144.535 96.0942 170.821 96.0942 170.821C96.0942 170.821 97.98 173.68 101.206 177.67C106.401 166.691 115.331 144.795 119.01 117.538Z" fill="#191984"/>
<path d="M198.104 159.962C207.856 159.962 214.688 149.674 209.64 151.604C204.593 153.533 199.832 155.663 199.832 155.663" stroke="#040F16" stroke-miterlimit="10"/>
<path d="M274.118 205.926C274.118 205.926 265.798 192.788 256.887 188.588" stroke="#040F16" stroke-miterlimit="10"/>
<path d="M271.123 211.785C271.123 211.785 255.991 211.395 248.863 210.105" stroke="#040F16" stroke-miterlimit="10"/>
<path d="M308.886 55.1276C308.886 55.1276 294.899 54.1077 289.27 57.7072" stroke="#040F16" stroke-miterlimit="10"/>
<path d="M311.723 61.9463C311.723 61.9463 309.098 68.2054 304.679 72.1448" stroke="#040F16" stroke-miterlimit="10"/>
<path d="M230.439 72.1448C228.36 78.3339 228.951 90.3721 230.439 88.3724C231.928 86.3727 233.046 72.1448 233.046 72.1448" stroke="#040F16" stroke-miterlimit="10"/>
</g>
</svg>
