<svg width="903" height="720" viewBox="0 0 903 720" fill="none" xmlns="http://www.w3.org/2000/svg">
<path d="M593.47 545.921C593.47 545.921 600.142 582.136 608.987 590.782C617.833 599.441 650.52 593.668 650.52 593.668L593.47 545.921Z" fill="#5C7C0E"/>
<path d="M689.692 681.812C689.692 681.812 680.697 606.176 672.311 592.719C667.9 585.638 593.482 545.934 593.482 545.934C593.482 545.934 605.012 568.345 623.274 594.002C645.973 625.893 667.764 607.908 673.553 613.873C679.343 619.838 686.586 681.812 686.586 681.812H689.692Z" fill="#76A21E"/>
<path d="M646.408 490.336C647.339 483.088 653.017 461.96 653.017 461.96C653.017 461.96 660.844 507.539 673.031 551.848C673.031 551.861 642.954 517.058 646.408 490.336Z" fill="#5C7C0E"/>
<path d="M690.574 681.812C690.574 681.812 689.642 586.946 685.294 570.924C680.945 554.901 646.408 490.336 646.408 490.336C646.408 490.336 640.245 529.334 641.848 542.073C645.041 567.511 681.654 580.686 683.977 585.253C686.3 589.82 687.94 681.799 687.94 681.799H690.574V681.812Z" fill="#76A21E"/>
<path d="M684.138 681.812C684.138 681.812 698.326 586.472 698.326 581.661C698.326 576.85 689.021 533.593 698.326 511.952C707.631 490.323 736.963 451.864 736.963 451.864C736.963 451.864 741.622 500.894 736.963 523.972C732.305 547.05 702.451 579.249 701.78 583.585C701.109 587.908 688.076 681.812 688.076 681.812H684.138Z" fill="#76A21E"/>
<path d="M776.086 510.515C776.086 510.515 778.148 539.353 775.353 552.336C772.557 565.318 739.038 574.926 739.038 574.926C739.038 574.926 770.023 534.068 776.086 510.515Z" fill="#5C7C0E"/>
<path d="M688.288 681.81C688.288 681.81 698.984 601.851 709.47 585.033C719.956 568.202 743.697 552.821 753.003 543.213C762.308 533.604 776.086 510.526 776.086 510.526C776.086 510.526 769.762 551.872 762.308 569.177C754.854 586.483 717.831 589.523 712.029 590.806C706.227 592.101 691.543 681.823 691.543 681.823H688.288V681.81Z" fill="#76A21E"/>
<path d="M652.88 623.109L656.843 677.476C657.501 686.469 664.757 693.422 673.491 693.422H709.743C718.477 693.422 725.732 686.469 726.391 677.476L730.354 623.109H652.88Z" fill="#1B1B2F"/>
<path d="M693.953 693.421H709.743C718.477 693.421 725.732 686.469 726.391 677.476L730.354 623.109H716.39C712.439 640.659 704.811 670.356 693.953 693.421Z" fill="#0E0E1C"/>
<path d="M343.816 672.896V105.063C343.816 93.7229 352.712 84.5378 363.694 84.5378H619.585C630.567 84.5378 639.463 93.7229 639.463 105.063V672.883C639.463 684.223 630.567 693.408 619.585 693.408H363.694C352.712 693.421 343.816 684.223 343.816 672.896Z" fill="#1B1B2F"/>
<path d="M627.039 112.914H356.24V665.058H627.039V112.914Z" fill="#43D8C9"/>
<path d="M383.771 446.771V486.526C383.771 487.937 384.889 489.092 386.256 489.092H594.464C595.831 489.092 596.949 487.937 596.949 486.526V446.771C596.949 445.36 595.831 444.206 594.464 444.206H386.256C384.889 444.206 383.771 445.347 383.771 446.771Z" stroke="white" stroke-miterlimit="10"/>
<path d="M383.771 430.133V436.278C383.771 437.689 384.889 438.843 386.256 438.843H436.112C437.479 438.843 438.597 437.689 438.597 436.278V430.133C438.597 428.722 437.479 427.567 436.112 427.567H386.256C384.889 427.567 383.771 428.709 383.771 430.133Z" stroke="white" stroke-miterlimit="10"/>
<path d="M558.001 479.419V481.292C558.001 482.703 559.119 483.858 560.486 483.858H562.3C563.666 483.858 564.784 482.703 564.784 481.292V479.419C564.784 478.008 563.666 476.854 562.3 476.854H560.486C559.119 476.854 558.001 478.008 558.001 479.419Z" stroke="white" stroke-miterlimit="10"/>
<path d="M570.188 479.419V481.292C570.188 482.703 571.307 483.858 572.673 483.858H574.487C575.854 483.858 576.972 482.703 576.972 481.292V479.419C576.972 478.008 575.854 476.854 574.487 476.854H572.673C571.294 476.854 570.188 478.008 570.188 479.419Z" stroke="white" stroke-miterlimit="10"/>
<path d="M582.363 479.419V481.292C582.363 482.703 583.481 483.858 584.848 483.858H586.662C588.029 483.858 589.147 482.703 589.147 481.292V479.419C589.147 478.008 588.029 476.854 586.662 476.854H584.848C583.481 476.854 582.363 478.008 582.363 479.419Z" stroke="white" stroke-miterlimit="10"/>
<path d="M383.771 522.009V561.764C383.771 563.175 384.889 564.33 386.256 564.33H594.464C595.831 564.33 596.949 563.175 596.949 561.764V522.009C596.949 520.598 595.831 519.444 594.464 519.444H386.256C384.889 519.444 383.771 520.598 383.771 522.009Z" stroke="white" stroke-miterlimit="10"/>
<path d="M383.771 505.371V511.516C383.771 512.927 384.889 514.081 386.256 514.081H436.112C437.479 514.081 438.597 512.927 438.597 511.516V505.371C438.597 503.96 437.479 502.805 436.112 502.805H386.256C384.889 502.805 383.771 503.96 383.771 505.371Z" stroke="white" stroke-miterlimit="10"/>
<path d="M558.001 554.67V556.543C558.001 557.954 559.119 559.109 560.486 559.109H562.3C563.666 559.109 564.784 557.954 564.784 556.543V554.67C564.784 553.259 563.666 552.104 562.3 552.104H560.486C559.119 552.104 558.001 553.259 558.001 554.67Z" stroke="white" stroke-miterlimit="10"/>
<path d="M570.188 554.67V556.543C570.188 557.954 571.307 559.109 572.673 559.109H574.487C575.854 559.109 576.972 557.954 576.972 556.543V554.67C576.972 553.259 575.854 552.104 574.487 552.104H572.673C571.294 552.104 570.188 553.259 570.188 554.67Z" stroke="white" stroke-miterlimit="10"/>
<path d="M582.363 554.67V556.543C582.363 557.954 583.481 559.109 584.848 559.109H586.662C588.029 559.109 589.147 557.954 589.147 556.543V554.67C589.147 553.259 588.029 552.104 586.662 552.104H584.848C583.481 552.104 582.363 553.259 582.363 554.67Z" stroke="white" stroke-miterlimit="10"/>
<path d="M383.771 597.26V637.015C383.771 638.426 384.889 639.581 386.256 639.581H594.464C595.831 639.581 596.949 638.426 596.949 637.015V597.26C596.949 595.849 595.831 594.695 594.464 594.695H386.256C384.889 594.695 383.771 595.849 383.771 597.26Z" stroke="white" stroke-miterlimit="10"/>
<path d="M383.771 580.622V586.767C383.771 588.178 384.889 589.332 386.256 589.332H436.112C437.479 589.332 438.597 588.178 438.597 586.767V580.622C438.597 579.211 437.479 578.056 436.112 578.056H386.256C384.889 578.056 383.771 579.198 383.771 580.622Z" stroke="white" stroke-miterlimit="10"/>
<path d="M558.001 629.921V631.794C558.001 633.205 559.119 634.36 560.486 634.36H562.3C563.666 634.36 564.784 633.205 564.784 631.794V629.921C564.784 628.51 563.666 627.356 562.3 627.356H560.486C559.119 627.356 558.001 628.497 558.001 629.921Z" stroke="white" stroke-miterlimit="10"/>
<path d="M570.188 629.921V631.794C570.188 633.205 571.307 634.36 572.673 634.36H574.487C575.854 634.36 576.972 633.205 576.972 631.794V629.921C576.972 628.51 575.854 627.356 574.487 627.356H572.673C571.294 627.356 570.188 628.497 570.188 629.921Z" stroke="white" stroke-miterlimit="10"/>
<path d="M582.363 629.921V631.794C582.363 633.205 583.481 634.36 584.848 634.36H586.662C588.029 634.36 589.147 633.205 589.147 631.794V629.921C589.147 628.51 588.029 627.356 586.662 627.356H584.848C583.481 627.356 582.363 628.497 582.363 629.921Z" stroke="white" stroke-miterlimit="10"/>
<path d="M403.749 455.789H576.972" stroke="white" stroke-miterlimit="10"/>
<path d="M403.749 466.655H576.972" stroke="white" stroke-miterlimit="10"/>
<path d="M403.749 477.508H449.517" stroke="white" stroke-miterlimit="10"/>
<path d="M403.749 531.041H576.972" stroke="white" stroke-miterlimit="10"/>
<path d="M403.749 541.893H576.972" stroke="white" stroke-miterlimit="10"/>
<path d="M403.749 552.759H449.517" stroke="white" stroke-miterlimit="10"/>
<path d="M403.749 606.279H576.972" stroke="white" stroke-miterlimit="10"/>
<path d="M403.749 617.144H576.972" stroke="white" stroke-miterlimit="10"/>
<path d="M403.749 627.997H449.517" stroke="white" stroke-miterlimit="10"/>
<path d="M421.154 247.868V329.084C421.154 332.253 423.651 334.831 426.72 334.831H554C557.069 334.831 559.566 332.253 559.566 329.084V247.868C559.566 244.7 557.069 242.121 554 242.121H426.72C423.639 242.121 421.154 244.687 421.154 247.868Z" stroke="white" stroke-miterlimit="10"/>
<path d="M426.695 247.624L486.44 308.443C488.602 310.65 492.093 310.65 494.255 308.443L554 247.624" stroke="white" stroke-miterlimit="10"/>
<path d="M379.472 64.128V197.35C379.472 203.02 383.92 207.613 389.411 207.613H716.377C721.869 207.613 726.316 203.02 726.316 197.35V64.128C726.316 58.4579 721.869 53.8654 716.377 53.8654H389.411C383.92 53.8654 379.472 58.4579 379.472 64.128Z" fill="#2451B6"/>
<path d="M436.447 144.574L423.228 151.758L425.75 136.544L415.054 125.781L429.838 123.562L436.447 109.72L443.069 123.562L457.853 125.781L447.144 136.544L449.678 151.758L436.447 144.574Z" fill="#FFB319"/>
<path d="M494.665 144.574L481.446 151.758L483.968 136.544L473.271 125.781L488.055 123.562L494.665 109.72L501.286 123.562L516.07 125.781L505.374 136.544L507.896 151.758L494.665 144.574Z" fill="#FFB319"/>
<path d="M552.882 144.574L539.663 151.758L542.185 136.544L531.488 125.781L546.272 123.562L552.882 109.72L559.504 123.562L574.288 125.781L563.591 136.544L566.113 151.758L552.882 144.574Z" fill="#FFB319"/>
<path d="M611.099 144.574L597.88 151.758L600.402 136.544L589.706 125.781L604.49 123.562L611.099 109.72L617.721 123.562L632.505 125.781L621.808 136.544L624.33 151.758L611.099 144.574Z" fill="#FFB319"/>
<path d="M669.329 144.574L656.098 151.758L658.62 136.544L647.923 125.781L662.707 123.562L669.329 109.72L675.938 123.562L690.722 125.781L680.026 136.544L682.548 151.758L669.329 144.574Z" fill="white"/>
<path d="M98.1134 113.863H230.177C234.289 113.863 237.631 117.314 237.631 121.56V178.685H237.582V200.621L224.375 178.685H98.1134C94.0011 178.685 90.6592 175.234 90.6592 170.988V121.56C90.6592 117.301 93.9887 113.863 98.1134 113.863Z" fill="#43D8C9"/>
<path d="M108.997 131.387H219.294" stroke="white" stroke-miterlimit="10"/>
<path d="M108.997 146.268H219.294" stroke="white" stroke-miterlimit="10"/>
<path d="M108.997 161.148H219.294" stroke="white" stroke-miterlimit="10"/>
<path d="M582.947 325.826V412.327C582.947 417.997 587.395 422.59 592.886 422.59H676.659C682.15 422.59 686.598 417.997 686.598 412.327V325.826C686.598 320.156 682.15 315.563 676.659 315.563H592.886C587.395 315.563 582.947 320.156 582.947 325.826Z" fill="#E43F5A"/>
<path d="M656.955 349.93C650.831 343.606 640.892 343.606 634.767 349.93C628.642 343.606 618.703 343.606 612.578 349.93C606.453 356.255 606.453 366.517 612.578 372.842L623.672 384.297L633.015 393.944C633.984 394.945 635.562 394.945 636.531 393.944L656.968 372.842C663.093 366.517 663.093 356.267 656.955 349.93Z" fill="white"/>
<path d="M695.034 185.292V251.601C695.034 257.271 699.481 261.864 704.973 261.864H769.191C774.682 261.864 779.129 257.271 779.129 251.601V185.292C779.129 179.621 774.682 175.029 769.191 175.029H704.973C699.481 175.029 695.034 179.621 695.034 185.292Z" fill="#FFB319"/>
<path d="M712.215 211.295L731.82 231.538L761.947 200.429" stroke="white" stroke-width="2" stroke-miterlimit="10"/>
<path d="M353.681 397.446C351.283 410.236 296.209 424.27 296.209 424.27L223.742 397.369L309.639 370.083L353.681 397.446Z" fill="#1A1C1C"/>
<path d="M366.315 618.517L382.18 659.298C382.18 659.298 397.611 660.004 403.947 656.104L393.449 606.099L366.315 618.517Z" fill="#D74015"/>
<path d="M193.154 611.269L189.464 655.052C189.464 655.052 202.919 662.877 210.274 662.364L222.797 612.86L193.154 611.269Z" fill="#D74015"/>
<path d="M382.193 659.311V682.389C382.193 682.389 395.523 684.454 403.959 682.389C412.382 680.324 451.517 664.25 451.517 664.25C451.517 664.25 449.914 655.18 441.938 652.704C433.95 650.228 403.959 656.117 403.959 656.117L382.193 659.311Z" fill="#FF8F6A"/>
<path d="M210.274 662.364C210.274 662.364 214.349 673.91 214.349 683.3C214.349 683.3 214.349 690.625 200.397 693.101C189.875 694.974 170.021 687.739 170.021 687.739C170.021 687.739 174.009 667.688 189.452 655.052L210.274 662.364Z" fill="#E43F5A"/>
<path d="M190.769 667.701C183.154 667.855 175.414 683.313 175.414 683.313L171.674 682.017C170.494 685.493 170.034 687.764 170.034 687.764C170.034 687.764 189.887 694.986 200.41 693.126C214.362 690.65 214.362 683.325 214.362 683.325C214.362 682.466 214.312 681.581 214.25 680.696L211.206 683.325C211.206 683.3 198.373 667.547 190.769 667.701Z" fill="white"/>
<path d="M184.88 659.362C184.88 659.362 182.408 640.748 194.782 646.521C207.156 652.294 208.224 663.108 208.224 663.108L184.88 659.362Z" fill="#E43F5A"/>
<path d="M441.926 652.704C437.441 651.319 426.011 652.563 416.843 653.923C416.843 653.923 418.756 639.504 411.178 643.635C403.587 647.753 403.947 656.117 403.947 656.117L400.394 667.701L382.181 659.311C378.193 672.973 382.181 687.341 382.181 687.341C382.181 687.341 395.511 684.454 403.947 682.389C412.37 680.324 451.505 664.25 451.505 664.25C451.505 664.25 449.915 655.18 441.926 652.704Z" fill="#E43F5A"/>
<path d="M441.927 652.704C439.839 652.063 436.261 651.986 432.112 652.23C429.726 659.593 429.54 667.701 429.54 667.701C412.805 674.782 391.325 679.888 381.125 682.094C381.622 685.327 382.181 687.341 382.181 687.341C382.181 687.341 395.512 684.454 403.947 682.389C412.371 680.324 451.505 664.25 451.505 664.25C451.505 664.25 449.915 655.18 441.927 652.704Z" fill="white"/>
<path d="M245.184 366.581C245.184 366.581 206.634 439.716 195.515 494.044C184.408 548.372 178.854 645.687 178.854 645.687C178.854 645.687 198.732 653.936 222.722 645.687C222.722 645.687 249.036 528.347 254.539 511.298C260.043 494.249 312.807 375.061 312.807 375.061L245.184 366.581Z" fill="#2451B6"/>
<path d="M336.822 370.083C336.822 370.083 364.054 442.833 372.838 479.111C381.621 515.403 407.003 641.569 407.003 641.569C407.003 641.569 385.846 656.655 365.595 652.999C365.595 652.999 318.77 515.018 306.359 483.396C293.948 451.774 266.628 370.083 266.628 370.083H336.822Z" fill="#2451B6"/>
<path d="M215.144 639.876C215.144 639.876 234.649 543.15 245.843 508.245C257.037 473.339 288.705 397.459 288.705 397.459" stroke="#213049" stroke-miterlimit="10"/>
<path d="M285.636 404.887C285.636 404.887 315.416 473.531 331.753 529.091C348.09 584.663 369.658 645.405 369.658 645.405" stroke="#213049" stroke-miterlimit="10"/>
<path d="M360.34 637.541C360.34 637.541 356.227 641.608 365.595 652.999C365.595 652.999 380.727 664.391 407.003 641.569C407.003 641.569 410.556 633.565 403.947 626.432C403.947 626.432 379.522 642.852 360.34 637.541Z" fill="#4273CC"/>
<path d="M180.022 627.843C180.022 627.843 172.978 637.182 178.855 645.7C178.855 645.7 196.919 659.721 222.723 645.7C222.723 645.7 229.717 638.58 225.94 631.422C225.928 631.409 186.706 638.016 180.022 627.843Z" fill="#4273CC"/>
<path d="M432.348 217.388C432.348 217.388 431.043 201.622 434.696 195.221C438.336 188.819 441.665 186.228 445.218 177.479C446.722 173.772 449.79 176.786 449.517 179.544C449.517 179.544 452.201 173.772 453.952 175.837C455.704 177.902 453.952 183.303 453.952 183.303C453.952 183.303 455.704 182.084 456.499 184.419C457.294 186.767 453.952 199.339 453.952 199.339C453.952 199.339 456.102 189.653 457.903 192.745C459.704 195.836 454.909 209.139 454.909 209.139C454.909 209.139 453.915 220.377 447.119 225.534L432.348 217.388Z" fill="#FF8F6A"/>
<path d="M449.517 179.544C449.517 179.544 448.498 187.69 443.728 196.298" stroke="#D74015" stroke-miterlimit="10"/>
<path d="M453.953 183.303C453.953 183.303 452.114 195.387 448.722 200.455" stroke="#D74015" stroke-miterlimit="10"/>
<path d="M455.543 192.681C455.543 192.681 453.952 202.02 451.331 206.548" stroke="#D74015" stroke-miterlimit="10"/>
<path d="M304.906 239.812C304.906 239.812 284.481 238.388 269.026 236.836C253.571 235.284 242.949 234.334 242.949 234.334L223.742 397.369C254.689 440.049 336.822 377.691 353.668 397.459C353.668 397.459 340.524 302.914 331.244 255.693C331.244 255.681 317.901 245.444 304.906 239.812Z" fill="#E43F5A"/>
<path d="M304.906 239.812C304.906 239.812 300.334 219.902 300.768 198.389L275.449 186.805C275.449 186.805 277.052 220.056 269.026 236.836C269.026 236.836 296.172 259.799 304.906 239.812Z" fill="#FF8F6A"/>
<path d="M300.768 198.389L277.399 187.69L277.064 192.193C277.064 192.193 279.424 214.45 302.831 228.202C301.688 220.441 300.545 209.64 300.768 198.389Z" fill="#D74015"/>
<path d="M270.343 165.074C276.343 143.959 314.819 139.687 316.758 169.769C317.789 185.676 320.982 212.244 307.191 215.387C293.401 218.555 261.609 195.849 270.343 165.074Z" fill="#FF8F6A"/>
<path d="M298.545 176.799C297.936 176.761 297.402 177.53 297.34 178.531C297.278 179.519 297.725 180.353 298.334 180.391C298.942 180.43 299.477 179.66 299.539 178.659C299.601 177.672 299.154 176.838 298.545 176.799Z" fill="#1A1C1C"/>
<path d="M311.664 177.607C311.055 177.569 310.521 178.339 310.459 179.339C310.397 180.327 310.844 181.161 311.453 181.199C312.062 181.238 312.596 180.468 312.658 179.467C312.72 178.48 312.273 177.646 311.664 177.607Z" fill="#1A1C1C"/>
<path d="M290.507 174.157C290.507 174.157 296.073 171.86 300.831 172.951C300.831 172.951 300.148 169.487 298.98 169.333C297.812 169.166 291.799 169.936 290.507 174.157Z" fill="#1A1C1C"/>
<path d="M316.92 172.271C316.858 171.424 316.795 170.59 316.746 169.782C315.479 150.052 298.495 145.1 285.264 149.975L288.097 155.479C288.097 155.479 289.525 173.079 313.367 165.857C313.379 165.857 314.1 169.346 316.92 172.271Z" fill="#D74015"/>
<path d="M309.08 174.157C309.08 174.157 311.763 173.438 313.54 174.952C313.54 174.952 312.707 171.655 310.993 171.116C309.278 170.577 309.08 174.157 309.08 174.157Z" fill="#1A1C1C"/>
<path d="M281.611 139.931C288.991 138.07 292.333 135.723 292.333 135.723C292.333 135.723 293.339 139.751 291.115 140.983C291.115 140.983 303.241 132.567 311.9 138.879C321.28 145.716 327.467 143.83 327.467 143.83C327.467 143.83 326.026 147.23 322.808 148.231C322.808 148.231 327.902 153.952 326.026 159.558C324.162 165.164 320.77 165.087 319.913 170.039C319.913 170.039 312.869 166.921 311.9 159.917C311.9 159.917 310.173 162.675 311.13 165.485C311.13 165.485 295.153 167.165 288.109 155.504C288.109 155.504 286.22 166.998 281.611 168.191C281.611 168.191 283.673 179.583 280.331 181.263L275.461 200.75C275.461 200.75 270.206 190.089 261.211 179.827C252.217 169.564 266.305 159.853 266.305 159.853C266.305 159.853 262.913 158.519 260.367 158.519C260.367 158.519 263.423 152.041 269.026 157.647C269.026 157.621 264.479 144.241 281.611 139.931Z" fill="#1A1C1C"/>
<path d="M281.611 182.829C281.611 182.829 271.598 169.436 269.461 177.646C267.92 183.534 277.81 191.565 277.81 191.565L281.611 182.829Z" fill="#FF8F6A"/>
<path d="M278.53 186.1C278.53 186.1 273.213 174.182 272.194 178.249C271.175 182.315 275.362 185.292 275.362 185.292" stroke="#D74015" stroke-miterlimit="10"/>
<path d="M296.557 183.791C296.557 183.791 293.351 180.943 288.655 180.661" stroke="#D74015" stroke-miterlimit="10"/>
<path d="M311.316 183.727C311.316 183.727 313.242 182.469 315.441 182.033" stroke="#D74015" stroke-miterlimit="10"/>
<path d="M282.22 174.157C282.22 174.157 282.754 185.933 291.575 193.771C291.575 193.771 292.693 191.27 296.544 190.564C300.396 189.859 308.546 192.681 308.546 192.681C308.546 192.681 314.67 187.511 317.801 191.577C320.92 195.644 322.709 215.092 311.291 217.722C299.886 220.351 286.978 215.708 284.27 206.728C284.27 206.728 285.984 187.716 278.518 179.237L282.22 174.157Z" fill="#1A1C1C"/>
<path d="M309.639 197.004C309.639 197.004 301.253 195.785 296.855 193.758C296.855 193.771 300.247 206.997 309.639 197.004Z" fill="white"/>
<path d="M300.769 204.175C300.769 204.175 304.409 202.392 306.372 204.175" stroke="#D74015" stroke-miterlimit="10"/>
<path d="M306.831 180.07C306.831 180.07 306.931 186.946 311.95 191.731C311.95 191.731 308.185 194.13 305.167 191.308" stroke="#D74015" stroke-miterlimit="10"/>
<path d="M354.078 267.008L389.622 286.135C389.622 286.135 426.359 229.472 432.347 217.401L447.119 225.521C447.119 225.521 414.768 317.654 404.792 320.245C394.803 322.837 350.488 306.25 350.488 306.25L354.078 267.008Z" fill="#FF8F6A"/>
<path d="M379.858 280.888L354.066 267.008L350.476 306.237C350.476 306.237 371.645 314.165 388.02 318.206C382.069 306.006 380.267 291.497 379.858 280.888Z" fill="#D74015"/>
<path d="M304.905 239.812C304.905 239.812 317.813 237.477 331.753 246.021C340.611 251.46 380.143 270.895 380.143 270.895C380.143 270.895 371.67 309.508 359.284 326.724C359.284 326.724 329.877 304.633 317.826 294.422C305.75 284.211 304.905 239.812 304.905 239.812Z" fill="#E43F5A"/>
<path d="M340.537 310.06L331.244 278.99" stroke="#A5213A" stroke-miterlimit="10"/>
<path d="M269.287 247.06C269.287 247.06 299.303 268.868 311.304 243.276" stroke="#A5213A" stroke-miterlimit="10"/>
<path d="M373.944 267.829C373.944 267.829 367.384 296.462 353.681 323.491" stroke="#A5213A" stroke-miterlimit="10"/>
<path d="M442.324 194.079C442.324 194.079 450.772 201.378 452.114 208.562" stroke="#D74015" stroke-miterlimit="10"/>
<path d="M432.348 217.388C432.348 217.388 433.354 208.921 437.404 205.74C447.119 198.094 448.722 190.885 450.449 195.554C451.343 197.966 448.983 206.959 444.063 207.792C444.063 207.792 445.417 213.681 442.61 223.045L432.348 217.388Z" fill="#FF8F6A"/>
<path d="M248.179 447.849L120.936 424.681C115.531 423.693 111.916 418.369 112.873 412.789L135.31 281.401C136.266 275.821 141.422 272.088 146.827 273.076L274.07 296.244C279.474 297.232 283.089 302.555 282.133 308.136L259.696 439.523C258.739 445.104 253.583 448.837 248.179 447.849Z" fill="#FFB319"/>
<path d="M151.746 349.379C151.746 349.379 179.923 355.459 191.925 352.804C203.926 350.148 208.249 306.276 214.126 307.315C223.58 308.982 219.344 333.664 215.84 343.747C215.84 343.747 250.353 350.777 255.72 357.345C261.087 363.913 250.105 371.225 250.105 371.225C250.105 371.225 253.273 375.895 251.707 380.834C250.142 385.773 244.924 388.903 244.924 388.903C244.924 388.903 249.558 399.807 237.308 403.899C237.308 403.899 238.712 410.48 228.463 413.456C218.213 416.432 208.311 418.1 179.488 404.541C173.215 401.59 143.944 393.726 143.944 393.726L151.746 349.379Z" fill="white"/>
<path d="M251.297 370.315C245.694 372.277 218.648 367.351 218.648 367.351" stroke="#518CBC" stroke-miterlimit="10"/>
<path d="M244.911 388.89C239.234 390.468 214.125 384.002 214.125 384.002" stroke="#518CBC" stroke-miterlimit="10"/>
<path d="M237.296 403.886C229.009 405.233 210.125 398.935 210.125 398.935" stroke="#518CBC" stroke-miterlimit="10"/>
<path d="M141.719 336.465L130.083 404.362L162.974 410.326L174.61 342.429L141.719 336.465Z" fill="#2451B6"/>
<path d="M186.694 241.146C186.694 241.146 185.278 298.36 211.939 300.721C211.939 300.721 219.157 283.107 211.939 264.006C204.721 244.892 186.694 241.146 186.694 241.146Z" fill="#1A1C1C"/>
<path d="M213.306 245.264C213.306 245.264 159.859 265.52 158.803 282.004C157.735 298.501 183.203 376.061 183.203 376.061L199.702 371.879L191.105 291.356L227.891 280.914C227.891 280.914 228.947 262.39 213.306 245.264Z" fill="#FF8F6A"/>
<path d="M223.27 282.222L224.612 263.57C222.984 259.234 220.537 254.436 216.909 249.613L207.057 247.804C203.665 249.228 199.155 251.191 194.273 253.538C195.167 262.659 196.223 277.72 195.167 290.214L223.27 282.222Z" fill="#D74015"/>
<path d="M269.026 236.836C269.026 236.836 262.827 225.752 244.266 227.471C221.058 229.626 186.694 241.146 186.694 241.146C186.694 241.146 210.56 274.204 211.939 300.721L238.824 286.93C238.824 286.943 270.629 260.376 269.026 236.836Z" fill="#E43F5A"/>
<path d="M199.689 371.879C199.689 371.879 203.727 372.072 206.92 375.702C210.113 379.333 216.635 383.861 216.262 386.747C215.89 389.634 206.708 383.861 206.708 383.861C206.708 383.861 205.106 387.992 208.907 395.612C212.697 403.232 214.697 407.362 209.305 405.72C209.305 405.72 208.709 409.017 206.112 407.991C203.516 406.965 202.323 404.899 202.323 404.899C202.323 404.899 201.018 406.849 199.689 406.76C198.36 406.657 194.136 401.397 194.136 401.397C194.136 401.397 187.352 401.808 185.352 398.614C183.352 395.419 183.19 376.074 183.19 376.074L199.689 371.879Z" fill="#FF8F6A"/>
<path d="M209.318 405.708C209.318 405.708 202.323 398.024 200.733 389.185" stroke="#D74015" stroke-miterlimit="10"/>
<path d="M202.323 404.887C202.323 404.887 197.428 399.294 194.484 390.031" stroke="#D74015" stroke-miterlimit="10"/>
<path d="M194.148 401.385C194.148 401.385 189.34 395.381 188.247 390.031" stroke="#D74015" stroke-miterlimit="10"/>
<path d="M198.41 237.503C198.41 237.503 217.592 264.121 216.287 298.488" stroke="#A5213A" stroke-miterlimit="10"/>
<path d="M238.824 286.943C238.824 286.943 261.572 272.845 264.889 245.264" stroke="#A5213A" stroke-miterlimit="10"/>
<path d="M452 350C446.48 350 442 354.48 442 360C442 365.52 446.48 370 452 370C457.52 370 462 365.52 462 360C462 354.48 457.52 350 452 350ZM452 353C453.66 353 455 354.34 455 356C455 357.66 453.66 359 452 359C450.34 359 449 357.66 449 356C449 354.34 450.34 353 452 353ZM452 367.2C449.5 367.2 447.29 365.92 446 363.98C446.03 361.99 450 360.9 452 360.9C453.99 360.9 457.97 361.99 458 363.98C456.71 365.92 454.5 367.2 452 367.2Z" fill="#333333"/>
</svg>
